<svg id="Layer_1" data-name="Layer 1" xmlns="http://www.w3.org/2000/svg" xmlns:xlink="http://www.w3.org/1999/xlink" viewBox="0 0 633.29 80"><defs><style>.cls-1{fill:#f39200;}.cls-2{fill:#e30613;}.cls-3{fill:#fff;}.cls-4,.cls-5{fill:#1d1d1b;}.cls-5{fill-rule:evenodd;}.cls-6{fill:#0095db;}.cls-7{fill:none;stroke:#0095db;stroke-width:0.33px;}.cls-8{fill:#e20613;}.cls-9{fill:#e30521;}.cls-10{fill:#06326e;}.cls-11{fill:#0033a0;}.cls-12{fill:#ff9e16;}.cls-13{fill:url(#radial-gradient);}.cls-14{fill:#007dc2;}</style><radialGradient id="radial-gradient" cx="566.82" cy="13.74" r="94.58" gradientUnits="userSpaceOnUse"><stop offset="0" stop-color="#83d4f6"/><stop offset="0.05" stop-color="#7dd2f5"/><stop offset="0.12" stop-color="#6ccdf3"/><stop offset="0.2" stop-color="#50c3ef"/><stop offset="0.29" stop-color="#2ab7ea"/><stop offset="0.37" stop-color="#00a9e5"/><stop offset="0.45" stop-color="#009edc"/><stop offset="0.62" stop-color="#008cce"/><stop offset="0.8" stop-color="#0081c5"/><stop offset="1" stop-color="#007dc2"/></radialGradient></defs><title>creditcards</title><path class="cls-1" d="M66.85,69.65A40,40,0,1,0,53.7,40,39.86,39.86,0,0,0,66.85,69.65"/><path class="cls-1" d="M129.49,62.22h0.15a0.33,0.33,0,0,0,.16,0,0.15,0.15,0,0,0,.07-0.13A0.14,0.14,0,0,0,129.8,62a0.37,0.37,0,0,0-.17,0h-0.14v0.29m0,0.64h-0.26V61.73h0.48a0.53,0.53,0,0,1,.29.06,0.34,0.34,0,0,1,.14.28,0.31,0.31,0,0,1-.2.29l0.21,0.5h-0.3l-0.17-.45h-0.19v0.45Zm0.18,0.42a1,1,0,1,0-1-1A1,1,0,0,0,129.67,63.28Zm-1.29-1a1.29,1.29,0,1,1,1.29,1.29A1.29,1.29,0,0,1,128.37,62.3Z"/><path class="cls-2" d="M79.78,35.76a39.81,39.81,0,0,0-.68-4.24H54.6a39.71,39.71,0,0,1,1.16-4.24H77.94a39.76,39.76,0,0,0-1.69-4.24H57.47a39.94,39.94,0,0,1,2.31-4.24H73.94a40,40,0,0,0-3-4.24H62.82a40.17,40.17,0,0,1,4-4.24,40,40,0,1,0,4,55.06H62.82a40.24,40.24,0,0,1-3-4.24H73.94a39.9,39.9,0,0,0,2.31-4.24H57.47a39.49,39.49,0,0,1-1.7-4.23H77.94a39.64,39.64,0,0,0,1.84-8.47,40.52,40.52,0,0,0,0-8.47"/><path class="cls-3" d="M129.49,49.2h0.15a0.33,0.33,0,0,0,.16,0,0.15,0.15,0,0,0,.07-0.13,0.14,0.14,0,0,0-.06-0.12,0.35,0.35,0,0,0-.17,0h-0.14V49.2m0,0.64h-0.26V48.71h0.48a0.53,0.53,0,0,1,.29.06,0.34,0.34,0,0,1,.14.28,0.31,0.31,0,0,1-.2.29l0.21,0.5h-0.3l-0.17-.45h-0.19v0.45Zm0.18,0.41a1,1,0,1,0-1-1A1,1,0,0,0,129.67,50.26Zm-1.29-1a1.29,1.29,0,1,1,1.29,1.29A1.29,1.29,0,0,1,128.37,49.28Z"/><path class="cls-4" d="M53.26,51.55a11.6,11.6,0,0,1-3.27.54c-2,0-3.29-1.28-3.29-3.62A9.21,9.21,0,0,1,46.83,47l0.26-1.62,0.2-1.31,1.88-11.26h4.17l-0.5,2.45h2.61l-0.61,4.16H52.23L51.1,46.15a4.38,4.38,0,0,0-.07.68c0,0.85.45,1.22,1.48,1.22a5.44,5.44,0,0,0,1.32-.15l-0.57,3.65"/><path class="cls-4" d="M64.08,41.58c0-.34,0-0.63,0-0.84a1.91,1.91,0,0,0-2.05-2.13c-1.38,0-2.37,1.05-2.77,3h4.78m2.59,9.82a15,15,0,0,1-4.45.67c-4.64,0-7.38-2.54-7.38-7.39,0-5.67,3.22-9.83,7.58-9.83,3.57,0,5.86,2.33,5.86,6a17.79,17.79,0,0,1-.53,4.07H59.11a3.72,3.72,0,0,0,0,.52c0,1.91,1.29,2.89,3.81,2.89a10.28,10.28,0,0,0,4.51-1Z"/><polyline class="cls-4" points="20.11 51.76 15.77 51.76 18.25 36.16 12.71 51.76 9.75 51.76 9.38 36.25 6.76 51.76 2.55 51.76 5.94 31.47 12.19 31.47 12.36 44.03 16.58 31.47 23.45 31.47 20.11 51.76"/><path class="cls-4" d="M34,51.76H30.21L30.3,50c-1,1.29-2.24,2-4.55,2-2.1,0-3.86-1.84-3.86-4.51a8.18,8.18,0,0,1,.32-2.16c0.68-2.53,3.25-4.15,7.19-4.2a14.56,14.56,0,0,1,1.91.07,4,4,0,0,0,.17-1.07c0-1.09-.9-1.44-2.93-1.44a13.86,13.86,0,0,0-3.59.5l-0.6.17-0.25.07,0.6-3.71a16.45,16.45,0,0,1,5-.87c3.73,0,5.7,1.68,5.7,4.84a15.29,15.29,0,0,1-.2,3.27l-0.91,5.85L34.2,49.9l-0.11.84L34,51.31l0,0.45m-3.43-7.35a5.81,5.81,0,0,0-.85-0.07c-2.46,0-3.71.94-3.71,2.51a1.52,1.52,0,0,0,1.56,1.68C29.64,48.53,30.47,46.85,30.54,44.41Z"/><path class="cls-4" d="M87.54,35.41a8.28,8.28,0,0,1,3.88,1.1l0.71-4.4c-0.39-.16-0.5-0.2-1-0.4l-1.78-.45A8,8,0,0,0,87.36,31c-2.15,0-3.42,0-4.72.82A11.46,11.46,0,0,0,80,34l-0.51-.16L75.11,37l0.21-1.77h-4.6l-2.65,16.5h4.34L74,42.88a18.09,18.09,0,0,1,.9-1.6,2.37,2.37,0,0,1,2.41-1.05h0.31a23.54,23.54,0,0,0-.2,3.13c0,5.4,3.07,8.76,7.74,8.76A13.55,13.55,0,0,0,89,51.53l0.76-4.62a8.46,8.46,0,0,1-3.69,1c-2.52,0-4-1.86-4-4.94,0-4.47,2.27-7.6,5.51-7.6"/><path class="cls-4" d="M119,47.87c-1.48,0-2.23-1.09-2.23-3.25,0-3.25,1.4-5.55,3.37-5.55,1.49,0,2.3,1.14,2.3,3.24,0,3.27-1.42,5.56-3.44,5.56m5.29-16.41-1,5.79a4.53,4.53,0,0,0-4-2.32,6.52,6.52,0,0,0-5.7,3.74v0L110.86,37l0.21-1.77h-4.6l-2.65,16.5h4.35l1.43-8.88s1.11-1.24,1.4-1.62a2.45,2.45,0,0,1,1.93-1,14.45,14.45,0,0,0-.79,4.9c0,4.13,2.15,6.85,5.31,6.85a5.15,5.15,0,0,0,4-1.83l-0.21,1.62h4.11l3.31-20.29h-4.43Z"/><path class="cls-4" d="M102.38,51.76H98.62L98.71,50c-1,1.29-2.24,2-4.55,2a4.2,4.2,0,0,1-4-4.53c0-3.92,3-6.34,7.65-6.34a15.7,15.7,0,0,1,1.91.07,4,4,0,0,0,.17-1.07c0-1.09-.9-1.44-2.93-1.44a13.87,13.87,0,0,0-3.6.5l-0.6.17-0.25.07,0.6-3.71a16.45,16.45,0,0,1,5-.87c3.73,0,5.7,1.68,5.7,4.84a15.3,15.3,0,0,1-.2,3.27l-0.91,5.85-0.15,1.05-0.11.84-0.08.57,0,0.45m-3.43-7.35a5.83,5.83,0,0,0-.86-0.07c-2.46,0-3.71.94-3.71,2.51a1.52,1.52,0,0,0,1.56,1.68C98,48.53,98.88,46.85,98.95,44.41Z"/><path class="cls-5" d="M43,38.79a25,25,0,0,1,3.26.25l0.62-3.81A30.61,30.61,0,0,0,43,34.89c-4.85,0-6.45,2.59-6.45,5.63,0,2,1,3.44,3.24,4.52,1.76,0.83,2.06,1,2.06,1.73,0,1-.9,1.61-2.61,1.61a12.18,12.18,0,0,1-3.89-.65l-0.5,3.79,0.1,0,0.79,0.17a10.21,10.21,0,0,0,1.14.16c1,0.09,1.9.15,2.46,0.15,4.82,0,6.81-1.87,6.81-5.51,0-2.26-1.08-3.59-3.25-4.59-1.82-.84-2-0.95-2-1.72S41.7,38.8,43,38.79"/><path class="cls-3" d="M93.31,30.82l-0.71,4.4a8.28,8.28,0,0,0-3.88-1.1c-3.24,0-5.51,3.13-5.51,7.6,0,3.08,1.53,4.94,4.05,4.94a8.45,8.45,0,0,0,3.69-1l-0.76,4.62a13.56,13.56,0,0,1-3.84.59c-4.67,0-7.59-3.36-7.59-8.76,0-7.25,4-12.32,9.78-12.32a8,8,0,0,1,1.94.21l1.78,0.45c0.55,0.2.66,0.24,1,.4"/><path class="cls-3" d="M79.37,33.84a2.13,2.13,0,0,0-.44,0c-1.43,0-2.24.73-3.57,2.68L75.75,34H71.83l-2.65,16.5h4.34c1.55-10.09,2-11.83,4-11.83a1.84,1.84,0,0,1,.32,0,16,16,0,0,1,1.65-4.79l-0.16,0"/><path class="cls-3" d="M54.36,50.28a9.94,9.94,0,0,1-3.12.54c-2.22,0-3.43-1.28-3.43-3.62a9.34,9.34,0,0,1,.13-1.48l0.26-1.62,0.2-1.31,1.88-11.26H54.6L54.1,34h2.22l-0.6,4H53.5l-1.14,6.88a4.39,4.39,0,0,0-.07.68c0,0.85.45,1.22,1.48,1.22a3.55,3.55,0,0,0,1.17-.16l-0.57,3.65"/><path class="cls-3" d="M37.68,39.19c0,2.08,1,3.52,3.3,4.6,1.76,0.83,2,1.07,2,1.82,0,1-.77,1.49-2.49,1.49a12.15,12.15,0,0,1-3.89-.65L36,50.26l0.19,0L37,50.46c0.25,0.05.63,0.1,1.13,0.14q1.55,0.14,2.39.14c4.58,0,6.69-1.74,6.69-5.51a4.51,4.51,0,0,0-3.06-4.59c-1.82-.83-2-1-2-1.79s0.72-1.35,2.12-1.35a24.29,24.29,0,0,1,3.12.25L48,33.94a29.51,29.51,0,0,0-3.82-.32c-4.85,0-6.53,2.53-6.52,5.58"/><path class="cls-3" d="M120.06,46.6c2,0,3.44-2.29,3.44-5.56,0-2.1-.81-3.24-2.3-3.24-2,0-3.37,2.3-3.37,5.55,0,2.16.75,3.25,2.23,3.25m6.4,3.88h-4.11l0.21-1.61a5.15,5.15,0,0,1-4,1.83c-3.16,0-5.25-2.72-5.25-6.85,0-5.49,3.24-10.12,7.07-10.12A4.93,4.93,0,0,1,124.54,36l1-5.79h4.28Z"/><path class="cls-3" d="M65.19,40.31c0-.34,0-0.63,0-0.84a1.91,1.91,0,0,0-2.05-2.13c-1.38,0-2.37,1.05-2.77,3h4.78m2.44,9.82a14.82,14.82,0,0,1-4.45.67c-4.85,0-7.38-2.54-7.38-7.39,0-5.67,3.22-9.83,7.58-9.83,3.57,0,5.86,2.33,5.86,6a17.74,17.74,0,0,1-.53,4.07H60.07a3.86,3.86,0,0,0,0,.52C60,46.07,61.32,47,63.84,47a10.26,10.26,0,0,0,4.51-1Z"/><polyline class="cls-3" points="21.22 50.48 16.87 50.48 19.36 34.88 13.81 50.48 10.85 50.48 10.48 34.97 7.87 50.48 3.8 50.48 7.2 30.19 13.44 30.19 13.62 42.75 17.83 30.19 24.57 30.19 21.22 50.48"/><path class="cls-3" d="M35.07,50.48h-3.6l0.08-1.71a5.45,5.45,0,0,1-4.55,2c-2.35,0-4-1.84-4-4.51,0-4,2.8-6.36,7.62-6.36a14.53,14.53,0,0,1,1.77.13A4,4,0,0,0,32.6,39c0-1.09-.76-1.5-2.78-1.5a14,14,0,0,0-3.61.46l-0.6.18-0.39.11,0.6-3.71a17.28,17.28,0,0,1,5.2-.87c3.73,0,5.7,1.68,5.7,4.84a19.52,19.52,0,0,1-.35,3.27l-0.91,5.85L35.3,48.62l-0.11.84L35.12,50l-0.05.45m-3.16-7.35a7.26,7.26,0,0,0-1-.07c-2.46,0-3.71.84-3.71,2.51a1.52,1.52,0,0,0,1.56,1.68C30.56,47.25,31.83,45.57,31.91,43.13Z"/><path class="cls-3" d="M103.48,50.48h-3.6L100,48.77a5.45,5.45,0,0,1-4.55,2c-2.35,0-4-1.84-4-4.51,0-4,2.8-6.36,7.62-6.36a14.54,14.54,0,0,1,1.77.13A4,4,0,0,0,101,39c0-1.09-.76-1.5-2.78-1.5a14,14,0,0,0-3.61.46l-0.6.18-0.39.11,0.6-3.71a17.29,17.29,0,0,1,5.2-.87c3.73,0,5.7,1.68,5.7,4.84a19.5,19.5,0,0,1-.35,3.27l-0.91,5.85-0.15,1.05-0.11.84-0.08.58,0,0.45m-3.16-7.35a7.23,7.23,0,0,0-1-.07c-2.46,0-3.71.84-3.71,2.51a1.52,1.52,0,0,0,1.56,1.68C99,47.25,100.24,45.57,100.32,43.13Z"/><path class="cls-3" d="M115.13,33.84a2.12,2.12,0,0,0-.44,0c-1.42,0-2.23.73-3.57,2.68l0.38-2.5h-3.93l-2.65,16.5h4.35c1.55-10.09,2-11.83,4-11.83a1.66,1.66,0,0,1,.3,0,15.93,15.93,0,0,1,1.65-4.79l-0.14,0"/><path class="cls-6" d="M230.85,69.65A40,40,0,1,0,204,80a39.89,39.89,0,0,0,26.85-10.35"/><path class="cls-6" d="M230.85,69.65a40,40,0,0,0,0-59.29"/><path class="cls-7" d="M230.85,69.65a40,40,0,0,0,0-59.29"/><path class="cls-8" d="M257.7,0a39.86,39.86,0,0,0-26.85,10.35,40.41,40.41,0,0,0-4,4.23h8.08a40.47,40.47,0,0,1,3,4.24H223.76a40,40,0,0,0-2.31,4.24h18.78a39.57,39.57,0,0,1,1.7,4.24H219.76a39.8,39.8,0,0,0-1.16,4.23h24.5a40.26,40.26,0,0,1-1.16,21.18H219.76a40.16,40.16,0,0,0,1.69,4.24h18.78a39.9,39.9,0,0,1-2.3,4.24H223.76a40,40,0,0,0,3,4.24h8.08a40.23,40.23,0,0,1-4,4.24A40,40,0,1,0,257.7,0"/><path class="cls-9" d="M293.49,62.22h0.15a0.33,0.33,0,0,0,.16,0,0.15,0.15,0,0,0,.07-0.13,0.15,0.15,0,0,0-.06-0.11,0.36,0.36,0,0,0-.17,0h-0.14v0.29m0,0.64h-0.27V61.73h0.48a0.53,0.53,0,0,1,.29.06,0.34,0.34,0,0,1,.14.28,0.31,0.31,0,0,1-.2.29l0.21,0.5h-0.29l-0.17-.45h-0.19v0.45Zm0.17,0.42a1,1,0,1,0-1-1A1,1,0,0,0,293.67,63.28Zm-1.29-1a1.29,1.29,0,1,1,1.29,1.29A1.29,1.29,0,0,1,292.38,62.3Z"/><polyline class="cls-10" points="197.75 51.13 192.73 51.13 195.68 35.54 188.87 51.13 184.66 51.13 183.84 35.63 180.54 51.13 175.97 51.13 179.83 30.85 187.74 30.85 187.82 43.4 193.3 30.85 201.68 30.85 197.75 51.13"/><path class="cls-10" d="M253.38,50.92a12.89,12.89,0,0,1-3.58.54c-2.55,0-3.94-1.28-3.94-3.62a8.34,8.34,0,0,1,.15-1.48l0.3-1.61,0.23-1.31,2.31-12.59h4.95l-0.72,3.79h2.54l-0.68,4H252.4l-1.31,6.88a4,4,0,0,0-.08.68c0,0.85.51,1.22,1.7,1.22a4.7,4.7,0,0,0,1.34-.15l-0.66,3.65"/><path class="cls-10" d="M233.61,39.85c0,2.08,1.18,3.52,3.84,4.6,2,0.83,2.36,1.07,2.36,1.82,0,1-.9,1.49-2.89,1.49a16.23,16.23,0,0,1-4.51-.65l-0.69,3.8,0.22,0,0.92,0.17c0.3,0.05.73,0.1,1.31,0.14,1.2,0.09,2.12.14,2.78,0.14,5.32,0,7.77-1.74,7.77-5.5,0-2.26-1-3.59-3.55-4.59-2.11-.83-2.35-1-2.35-1.79s0.84-1.35,2.46-1.35a32.58,32.58,0,0,1,3.62.25l0.72-3.82a39.52,39.52,0,0,0-4.43-.32c-5.64,0-7.58,2.53-7.57,5.58"/><path class="cls-10" d="M210.5,43.78a9.09,9.09,0,0,0-1.11-.07c-2.82,0-4.25.84-4.25,2.51a1.62,1.62,0,0,0,1.79,1.68c2,0,3.49-1.69,3.58-4.12m3.36,7.35h-4.14l0.1-1.71a6.68,6.68,0,0,1-5.22,2,4.31,4.31,0,0,1-4.55-4.51c0-4,3.22-6.36,8.74-6.36a19.29,19.29,0,0,1,2,.13,3.53,3.53,0,0,0,.2-1.07c0-1.09-.87-1.5-3.19-1.5a18.38,18.38,0,0,0-4.14.46l-0.69.18-0.45.11,0.69-3.71a22.54,22.54,0,0,1,6-.88c4.28,0,6.54,1.68,6.54,4.84a17,17,0,0,1-.41,3.27l-1,5.85-0.18,1.05-0.13.84-0.09.57Z"/><path class="cls-10" d="M227.81,41c0-.34,0-0.62,0-0.84A2.06,2.06,0,0,0,225.5,38c-1.58,0-2.72,1.05-3.18,3h5.49m2.42,9.81a19.31,19.31,0,0,1-5.1.67c-5.56,0-8.47-2.54-8.47-7.39,0-5.66,3.69-9.83,8.7-9.83,4.1,0,6.72,2.33,6.72,6a15.58,15.58,0,0,1-.61,4.07h-9.9a3.09,3.09,0,0,0,0,.52c0,1.91,1.48,2.89,4.37,2.89a13.28,13.28,0,0,0,5.17-1Z"/><path class="cls-10" d="M278.31,41.68c0-1.72-.7-3.35-2.74-3.35-2.54,0-4.11,3-4.11,5.66,0,2.24,1.08,3.74,2.86,3.71,1.08,0,3.38-1.47,3.83-4a11.33,11.33,0,0,0,.16-2m5.06,2c-0.75,5.49-4.58,7.92-9.67,7.92-5.63,0-7.91-3.42-7.91-7.6,0-5.85,3.85-9.81,9.8-9.81,5.17,0,7.91,3.26,7.91,7.44A10.49,10.49,0,0,1,283.37,43.65Z"/><path class="cls-3" d="M285,48.59h0.15a0.33,0.33,0,0,0,.16,0,0.15,0.15,0,0,0,.07-0.13,0.14,0.14,0,0,0-.06-0.12,0.36,0.36,0,0,0-.17,0H285v0.29m0,0.64h-0.26V48.1h0.48a0.52,0.52,0,0,1,.29.06,0.34,0.34,0,0,1,.14.28,0.31,0.31,0,0,1-.2.29l0.21,0.5H285.4l-0.17-.45H285v0.45Zm0.17,0.42a1,1,0,1,0-1-1A1,1,0,0,0,285.21,49.65Zm-1.29-1A1.29,1.29,0,1,1,285.21,50,1.29,1.29,0,0,1,283.92,48.67Z"/><polyline class="cls-3" points="199 49.96 194.02 49.96 196.98 34.37 190.17 49.96 185.63 49.96 184.8 34.46 181.83 49.96 177.31 49.96 181.18 29.68 188.94 29.68 189.35 42.24 194.83 29.68 202.93 29.68 199 49.96"/><path class="cls-3" d="M254.64,49.76a12.91,12.91,0,0,1-3.58.54c-2.55,0-3.94-1.28-3.94-3.62a8.15,8.15,0,0,1,.15-1.48l0.3-1.61,0.23-1.3,2.31-12.59h5l-0.72,3.79h2.54l-0.68,4h-2.55l-1.31,6.88a3.91,3.91,0,0,0-.09.68c0,0.85.51,1.22,1.7,1.22a4.67,4.67,0,0,0,1.34-.15l-0.66,3.65"/><path class="cls-10" d="M267.43,38.2l-0.11-.52,1-2.58-0.37,0L267.5,35a2.81,2.81,0,0,0-.5,0c-1.63,0-2.81.73-4.34,2.68l0.53-2.93H258L255,51.13h4.95c0.68-3.78,1-5.93,1.38-7.72,0.66-3,2.88-4.32,4.45-4a2.59,2.59,0,0,1,.56.13l0.3,0.11,0.83-1.43"/><path class="cls-3" d="M269.18,33.6a2.72,2.72,0,0,0-.56-0.18l-0.43-.1a2.7,2.7,0,0,0-.5,0c-1.64,0-2.81.73-4.34,2.68l0.44-2.5h-4.51l-3,16.49h5c1.78-10.09,2.55-11.85,4.94-11.85a5.78,5.78,0,0,1,.63,0l0.58,0.12,1.8-4.66"/><path class="cls-3" d="M234.9,38.68c0,2.08,1.17,3.52,3.83,4.6,2,0.83,2.36,1.07,2.36,1.82,0,1-.9,1.49-2.89,1.49a16.2,16.2,0,0,1-4.52-.65L233,49.74l0.22,0,0.92,0.17q0.44,0.08,1.31.14,1.8,0.14,2.78.14c5.32,0,7.77-1.74,7.77-5.5,0-2.26-1-3.59-3.55-4.59-2.11-.83-2.35-1-2.35-1.79S240.94,37,242.57,37a32.62,32.62,0,0,1,3.62.25l0.72-3.82a39.47,39.47,0,0,0-4.43-.32c-5.63,0-7.58,2.53-7.57,5.58"/><path class="cls-3" d="M211.56,42.61a9.2,9.2,0,0,0-1.11-.07c-2.82,0-4.25.84-4.25,2.51A1.62,1.62,0,0,0,208,46.74c2,0,3.49-1.69,3.58-4.12M215.19,50h-4.14l0.09-1.71a6.67,6.67,0,0,1-5.22,2,4.31,4.31,0,0,1-4.55-4.51c0-4,3.22-6.36,8.75-6.36a19.3,19.3,0,0,1,2,.13,3.51,3.51,0,0,0,.2-1.07c0-1.09-.87-1.5-3.19-1.5a18.36,18.36,0,0,0-4.14.46l-0.69.18-0.45.11L204.57,34a22.51,22.51,0,0,1,6-.88c4.28,0,6.54,1.68,6.54,4.84a17,17,0,0,1-.4,3.27l-1,5.85-0.17,1-0.13.84-0.08.57Z"/><path class="cls-3" d="M228.87,39.79c0-.34,0-0.62,0-0.84a2.06,2.06,0,0,0-2.36-2.13c-1.58,0-2.72,1.05-3.18,3h5.49m2.65,9.81a19.33,19.33,0,0,1-5.1.67c-5.57,0-8.47-2.54-8.47-7.39,0-5.66,3.69-9.83,8.7-9.83,4.1,0,6.71,2.33,6.71,6a15.61,15.61,0,0,1-.61,4.07h-9.9a3.19,3.19,0,0,0,0,.52c0,1.91,1.47,2.89,4.37,2.89a13.27,13.27,0,0,0,5.17-1Z"/><path class="cls-3" d="M279.53,40.37c0-1.73-.7-3.35-2.74-3.35-2.54,0-4.12,3-4.12,5.65,0,2.24,1.08,3.74,2.86,3.71,1.08,0,3.38-1.47,3.83-4a11.26,11.26,0,0,0,.16-2m5.13,2.11C283.91,48,280.08,50.4,275,50.4c-5.63,0-7.91-3.42-7.91-7.6,0-5.85,3.85-9.81,9.8-9.81,5.16,0,7.91,3.26,7.91,7.44A10.44,10.44,0,0,1,284.66,42.48Z"/><path class="cls-11" d="M380.66,11.07L366,50.69l-1.57-8.05c-3.66-9.87-11.58-20.22-20.8-24.42L357,69.08h15.89l23.62-58H380.66Z"/><polygon class="cls-11" points="393.25 69.14 402.65 11.01 417.65 11.01 408.26 69.14 393.25 69.14 393.25 69.14"/><path class="cls-11" d="M462.71,12.45A37,37,0,0,0,449.26,10c-14.85,0-25.28,7.89-25.37,19.18-0.1,8.36,7.46,13,13.14,15.8,5.86,2.84,7.82,4.67,7.8,7.21-0.06,3.89-4.69,5.67-9,5.67a30.08,30.08,0,0,1-14.12-3l-1.95-.93-2.1,13c3.51,1.62,10,3,16.73,3.1,15.76,0,26-7.8,26.13-19.85,0.06-6.63-3.95-11.65-12.61-15.8-5.23-2.69-8.47-4.48-8.42-7.21,0-2.41,2.71-5,8.6-5a26.25,26.25,0,0,1,11.23,2.23L460.66,25l2-12.6h0Z"/><path class="cls-11" d="M501.2,11.07H489.6c-3.6,0-6.29,1-7.88,4.82L459.45,69.16h15.76s2.58-7.17,3.16-8.74l19.21,0c0.46,2,1.83,8.7,1.83,8.7h13.94L501.2,11.07h0ZM482.69,48.53c1.25-3.34,6-16.25,6-16.25-0.09.16,1.23-3.36,2-5.54l1,5,3.48,16.78H482.69Z"/><path class="cls-12" d="M352.35,11h-24.2L328,12c18.82,4.81,31.24,16.63,36.41,30.61l-5.26-26.72c-0.9-3.68-3.54-4.77-6.8-4.9h0Z"/><path class="cls-13" d="M632.82,0H553.5V79.61h79.33V53.33a3,3,0,0,0,.47-1.75,2.71,2.71,0,0,0-.47-1.74V0Z"/><path class="cls-3" d="M553.5,40.31h3.81l0.86-2.08h1.92l0.85,2.08h7.5V38.72l0.67,1.59H573l0.67-1.61v1.61H592.3v-3.4h0.36c0.25,0,.33,0,0.33.45v3h9.63V39.51a7.61,7.61,0,0,0,3.57.79h4.06l0.87-2.08H613l0.85,2.08h7.81v-2l1.18,2h6.25v-13h-6.19v1.54l-0.86-1.54h-6.36v1.54l-0.79-1.54h-8.59a7.7,7.7,0,0,0-3.72.76V27.29h-5.92v0.76a3.69,3.69,0,0,0-2.52-.76H572.52l-1.46,3.36-1.48-3.36h-6.82v1.54L562,27.29H556.2l-2.7,6.18v6.83Zm73.64-1.84H624l-4.23-7v7h-4.54l-0.87-2.08h-4.64l-0.83,2.08h-2.61a4.69,4.69,0,0,1-3.23-1,4.68,4.68,0,0,1-1.19-3.57,5,5,0,0,1,1.2-3.64,4.52,4.52,0,0,1,3.39-1.09h2.15v2h-2.11a2.17,2.17,0,0,0-1.72.56,3.12,3.12,0,0,0-.64,2.11,3.19,3.19,0,0,0,.62,2.19,2.14,2.14,0,0,0,1.55.48h1l3.14-7.34h3.34L617.54,38V29.14h3.4l3.92,6.5v-6.5h2.28v9.33Zm-26.39,0h-2.27V29.14h2.27v9.33Zm-3.57-6.81a2.63,2.63,0,0,1-1.57,2.48,2.5,2.5,0,0,1,1.1.79,2.65,2.65,0,0,1,.38,1.7v1.83h-2.25V37.29a2.73,2.73,0,0,0-.36-1.81,2.15,2.15,0,0,0-1.62-.4h-2.4v3.38h-2.23V29.14h5.13a5.28,5.28,0,0,1,2.7.45A2.17,2.17,0,0,1,597.18,31.66Zm-10.5,6.81h-7.45V29.14h7.45v2h-5.21v1.67h5.09v1.92h-5.09v1.86h5.21v1.93Zm-9.11,0h-2.28V31.17L572,38.47h-2l-3.25-7.31v7.31h-4.53l-0.85-2.08h-4.64l-0.86,2.08h-2.42l4-9.33h3.32L564.62,38V29.14h3.65l2.91,6.33,2.68-6.33h3.71v9.33Zm36-4L612,30.73l-1.53,3.71h3.07ZM594.26,33a2.2,2.2,0,0,1-1.1.19h-2.71V31.09h2.75a2.37,2.37,0,0,1,1.06.16,0.87,0.87,0,0,1,.46.82A1,1,0,0,1,594.26,33Zm-33.62,1.47-1.53-3.71-1.52,3.71h3Z"/><path class="cls-3" d="M596.71,48.28c0,2.59-1.93,3.13-3.88,3.13H590v3.13h-4.33L583,51.44l-2.85,3.09h-8.83V45.2h9L583,48.25l2.84-3.06H593C594.72,45.2,596.71,45.69,596.71,48.28ZM579,52.58h-5.48V50.73h4.89v-1.9h-4.89V47.13h5.59l2.44,2.71Zm8.84,1.1-3.42-3.8,3.42-3.68v7.48Zm5.11-4.18H590V47.13H593a1.13,1.13,0,0,1,1.36,1.14A1.19,1.19,0,0,1,592.93,49.5Zm15-4.3h7.45v1.93h-5.22v1.69h5.09v1.9h-5.09v1.86h5.22v1.94H608V45.2Zm-2.82,5a2.38,2.38,0,0,1,1.09.79,2.69,2.69,0,0,1,.37,1.7v1.85h-2.24V53.36a2.74,2.74,0,0,0-.36-1.82,2.12,2.12,0,0,0-1.63-.42H600v3.41h-2.24V45.2h5.14a5.44,5.44,0,0,1,2.68.44,2.18,2.18,0,0,1,1.14,2.07A2.61,2.61,0,0,1,605.15,50.19ZM603.81,49a2.16,2.16,0,0,1-1.1.19H600V47.13h2.75a2.23,2.23,0,0,1,1.06.16,0.89,0.89,0,0,1,.46.84A1,1,0,0,1,603.81,49Zm20.12,0.57a2.59,2.59,0,0,1,.67,2c0,2-1.26,2.95-3.5,2.95h-4.35v-2h4.33a1.3,1.3,0,0,0,.91-0.23,0.81,0.81,0,0,0,.26-0.6,0.78,0.78,0,0,0-.28-0.62,1.15,1.15,0,0,0-.79-0.21c-2.08-.07-4.7.06-4.7-2.89,0-1.35.85-2.78,3.19-2.78h4.47v2h-4.09a1.53,1.53,0,0,0-.9.17,0.78,0.78,0,0,0,.16,1.37,2.63,2.63,0,0,0,.86.11l1.2,0A3.64,3.64,0,0,1,623.92,49.6Zm8.9,3.73a3.48,3.48,0,0,1-3,1.2h-4.31v-2h4.29a1.26,1.26,0,0,0,.9-0.23,0.81,0.81,0,0,0,.27-0.6,0.79,0.79,0,0,0-.27-0.62,1.15,1.15,0,0,0-.79-0.21c-2.09-.07-4.7.06-4.7-2.89,0-1.35.86-2.78,3.19-2.78h4.45V43.34h-4.13a4.64,4.64,0,0,0-2.79.76V43.34h-6.1a4.26,4.26,0,0,0-2.66.76V43.34h-10.9v0.76a5.84,5.84,0,0,0-3-.76H596v0.76c-0.69-.66-2.21-0.76-3.14-0.76h-8l-1.84,2-1.72-2h-12v13h11.8l1.9-2,1.79,2H592V53.3h0.72a7.63,7.63,0,0,0,3.1-.45v3.51h6V53h0.29c0.37,0,.41,0,0.41.38v3h18.21a5.2,5.2,0,0,0,3-.83v0.83h5.78a7.76,7.76,0,0,0,3.27-.6V53.33Zm0-6.15h-4.07a1.53,1.53,0,0,0-.9.17,0.74,0.74,0,0,0-.33.67,0.7,0.7,0,0,0,.49.69,2.6,2.6,0,0,0,.86.11l1.2,0a3.6,3.6,0,0,1,2.53.75,2.08,2.08,0,0,1,.21.24V47.18Z"/><path class="cls-14" d="M548.42,78h-0.7a4,4,0,0,1-.1-0.92,0.44,0.44,0,0,0-.52-0.52h-1V78h-0.62V74.44h1.64a1,1,0,0,1,1.18,1,0.89,0.89,0,0,1-.38.79,0.67,0.67,0,0,1,.31.64l0,0.61a0.26,0.26,0,0,0,.17.29V78Zm-0.76-2.49a0.44,0.44,0,0,0-.53-0.48h-1.05v1h1A0.49,0.49,0,0,0,547.66,75.48Zm2.89,0.77A3.78,3.78,0,1,0,546.78,80,3.76,3.76,0,0,0,550.56,76.24Zm-0.57,0A3.21,3.21,0,1,1,546.78,73,3.16,3.16,0,0,1,550,76.24Z"/></svg>