<svg xmlns="http://www.w3.org/2000/svg" viewBox="0 0 513.35 80"><title>creditcards</title><g id="Layer_1" data-name="Layer 1"><path d="M66.85,69.65A40,40,0,1,0,53.7,40,39.86,39.86,0,0,0,66.85,69.65" style="fill:#f39200"/><path d="M129.49,62.22h.15a.33.33,0,0,0,.16,0,.15.15,0,0,0,.07-.13.14.14,0,0,0-.06-.12.37.37,0,0,0-.17,0h-.14v.29m0,.64h-.26V61.73h.48a.53.53,0,0,1,.29.06.34.34,0,0,1,.14.28.31.31,0,0,1-.2.29l.21.5h-.3l-.17-.45h-.19Zm.18.42a1,1,0,1,0-1-1A1,1,0,0,0,129.67,63.28Zm-1.29-1a1.29,1.29,0,1,1,1.29,1.29A1.29,1.29,0,0,1,128.37,62.3Z" style="fill:#f39200"/><path d="M79.78,35.76a39.81,39.81,0,0,0-.68-4.24H54.6a39.71,39.71,0,0,1,1.16-4.24H77.94a39.76,39.76,0,0,0-1.69-4.24H57.47a39.94,39.94,0,0,1,2.31-4.24H73.94a40,40,0,0,0-3-4.24H62.82a40.17,40.17,0,0,1,4-4.24,40,40,0,1,0,4,55.06H62.82a40.24,40.24,0,0,1-3-4.24H73.94a39.9,39.9,0,0,0,2.31-4.24H57.47a39.49,39.49,0,0,1-1.7-4.23H77.94a39.64,39.64,0,0,0,1.84-8.47,40.52,40.52,0,0,0,0-8.47" style="fill:#e30613"/><path d="M129.49,49.2h.15a.33.33,0,0,0,.16,0,.15.15,0,0,0,.07-.13.14.14,0,0,0-.06-.12.35.35,0,0,0-.17,0h-.14v.29m0,.64h-.26V48.71h.48a.53.53,0,0,1,.29.06.34.34,0,0,1,.14.28.31.31,0,0,1-.2.29l.21.5h-.3l-.17-.45h-.19Zm.18.41a1,1,0,1,0-1-1A1,1,0,0,0,129.67,50.26Zm-1.29-1a1.29,1.29,0,1,1,1.29,1.29A1.29,1.29,0,0,1,128.37,49.28Z" style="fill:#fff"/><path d="M53.26,51.55a11.6,11.6,0,0,1-3.27.54c-2,0-3.29-1.28-3.29-3.62A9.21,9.21,0,0,1,46.83,47l.26-1.62.2-1.31,1.88-11.26h4.17l-.5,2.45h2.61l-.61,4.16H52.23L51.1,46.15a4.38,4.38,0,0,0-.07.68c0,.85.45,1.22,1.48,1.22a5.44,5.44,0,0,0,1.32-.15l-.57,3.65" style="fill:#1d1d1b"/><path d="M64.08,41.58c0-.34,0-.63,0-.84a1.91,1.91,0,0,0-2.05-2.13c-1.38,0-2.37,1.05-2.77,3h4.78m2.59,9.82a15,15,0,0,1-4.45.67c-4.64,0-7.38-2.54-7.38-7.39,0-5.67,3.22-9.83,7.58-9.83,3.57,0,5.86,2.33,5.86,6a17.79,17.79,0,0,1-.53,4.07H59.11a3.72,3.72,0,0,0,0,.52c0,1.91,1.29,2.89,3.81,2.89a10.28,10.28,0,0,0,4.51-1Z" style="fill:#1d1d1b"/><polyline points="20.11 51.76 15.77 51.76 18.25 36.16 12.71 51.76 9.75 51.76 9.38 36.25 6.76 51.76 2.55 51.76 5.94 31.47 12.19 31.47 12.36 44.03 16.58 31.47 23.45 31.47 20.11 51.76" style="fill:#1d1d1b"/><path d="M34,51.76H30.21L30.3,50c-1,1.29-2.24,2-4.55,2-2.1,0-3.86-1.84-3.86-4.51a8.18,8.18,0,0,1,.32-2.16c.68-2.53,3.25-4.15,7.19-4.2a14.56,14.56,0,0,1,1.91.07,4,4,0,0,0,.17-1.07c0-1.09-.9-1.44-2.93-1.44a13.86,13.86,0,0,0-3.59.5l-.6.17-.25.07.6-3.71a16.45,16.45,0,0,1,5-.87c3.73,0,5.7,1.68,5.7,4.84a15.29,15.29,0,0,1-.2,3.27l-.91,5.85L34.2,49.9l-.11.84-.08.57,0,.45m-3.43-7.35a5.81,5.81,0,0,0-.85-.07c-2.46,0-3.71.94-3.71,2.51a1.52,1.52,0,0,0,1.56,1.68C29.64,48.53,30.47,46.85,30.54,44.41Z" style="fill:#1d1d1b"/><path d="M87.54,35.41a8.28,8.28,0,0,1,3.88,1.1l.71-4.4c-.39-.16-.5-.2-1-.4l-1.78-.45A8,8,0,0,0,87.36,31c-2.15,0-3.42,0-4.72.82A11.46,11.46,0,0,0,80,34l-.51-.16L75.11,37l.21-1.77h-4.6l-2.65,16.5h4.34L74,42.88a18.09,18.09,0,0,1,.9-1.6,2.37,2.37,0,0,1,2.41-1.05h.31a23.54,23.54,0,0,0-.2,3.13c0,5.4,3.07,8.76,7.74,8.76A13.55,13.55,0,0,0,89,51.53l.76-4.62a8.46,8.46,0,0,1-3.69,1c-2.52,0-4-1.86-4-4.94,0-4.47,2.27-7.6,5.51-7.6" style="fill:#1d1d1b"/><path d="M119,47.87c-1.48,0-2.23-1.09-2.23-3.25,0-3.25,1.4-5.55,3.37-5.55,1.49,0,2.3,1.14,2.3,3.24,0,3.27-1.42,5.56-3.44,5.56m5.29-16.41-1,5.79a4.53,4.53,0,0,0-4-2.32,6.52,6.52,0,0,0-5.7,3.74v0L110.86,37l.21-1.77h-4.6l-2.65,16.5h4.35l1.43-8.88s1.11-1.24,1.4-1.62a2.45,2.45,0,0,1,1.93-1,14.45,14.45,0,0,0-.79,4.9c0,4.13,2.15,6.85,5.31,6.85a5.15,5.15,0,0,0,4-1.83l-.21,1.62h4.11l3.31-20.29Z" style="fill:#1d1d1b"/><path d="M102.38,51.76H98.62L98.71,50c-1,1.29-2.24,2-4.55,2a4.2,4.2,0,0,1-4-4.53c0-3.92,3-6.34,7.65-6.34a15.7,15.7,0,0,1,1.91.07,4,4,0,0,0,.17-1.07c0-1.09-.9-1.44-2.93-1.44a13.87,13.87,0,0,0-3.6.5l-.6.17-.25.07.6-3.71a16.45,16.45,0,0,1,5-.87c3.73,0,5.7,1.68,5.7,4.84a15.3,15.3,0,0,1-.2,3.27l-.91,5.85-.15,1.05-.11.84-.08.57,0,.45m-3.43-7.35a5.83,5.83,0,0,0-.86-.07c-2.46,0-3.71.94-3.71,2.51a1.52,1.52,0,0,0,1.56,1.68C98,48.53,98.88,46.85,98.95,44.41Z" style="fill:#1d1d1b"/><path d="M43,38.79a25,25,0,0,1,3.26.25l.62-3.81A30.61,30.61,0,0,0,43,34.89c-4.85,0-6.45,2.59-6.45,5.63,0,2,1,3.44,3.24,4.52,1.76.83,2.06,1,2.06,1.73,0,1-.9,1.61-2.61,1.61a12.18,12.18,0,0,1-3.89-.65l-.5,3.79.1,0,.79.17a10.21,10.21,0,0,0,1.14.16c1,.09,1.9.15,2.46.15,4.82,0,6.81-1.87,6.81-5.51,0-2.26-1.08-3.59-3.25-4.59-1.82-.84-2-.95-2-1.72s.8-1.41,2.12-1.42" style="fill:#1d1d1b;fill-rule:evenodd"/><path d="M93.31,30.82l-.71,4.4a8.28,8.28,0,0,0-3.88-1.1c-3.24,0-5.51,3.13-5.51,7.6,0,3.08,1.53,4.94,4.05,4.94a8.45,8.45,0,0,0,3.69-1l-.76,4.62a13.56,13.56,0,0,1-3.84.59c-4.67,0-7.59-3.36-7.59-8.76,0-7.25,4-12.32,9.78-12.32a8,8,0,0,1,1.94.21l1.78.45c.55.2.66.24,1,.4" style="fill:#fff"/><path d="M79.37,33.84a2.13,2.13,0,0,0-.44,0c-1.43,0-2.24.73-3.57,2.68l.38-2.5H71.83l-2.65,16.5h4.34c1.55-10.09,2-11.83,4-11.83a1.84,1.84,0,0,1,.32,0,16,16,0,0,1,1.65-4.79l-.16,0" style="fill:#fff"/><path d="M54.36,50.28a9.94,9.94,0,0,1-3.12.54c-2.22,0-3.43-1.28-3.43-3.62a9.34,9.34,0,0,1,.13-1.48l.26-1.62.2-1.31,1.88-11.26H54.6L54.1,34h2.22l-.6,4H53.5l-1.14,6.88a4.39,4.39,0,0,0-.07.68c0,.85.45,1.22,1.48,1.22a3.55,3.55,0,0,0,1.17-.16l-.57,3.65" style="fill:#fff"/><path d="M37.68,39.19c0,2.08,1,3.52,3.3,4.6,1.76.83,2,1.07,2,1.82,0,1-.77,1.49-2.49,1.49a12.15,12.15,0,0,1-3.89-.65L36,50.26l.19,0,.79.17c.25.05.63.1,1.13.14q1.55.14,2.39.14c4.58,0,6.69-1.74,6.69-5.51a4.51,4.51,0,0,0-3.06-4.59c-1.82-.83-2-1-2-1.79s.72-1.35,2.12-1.35a24.29,24.29,0,0,1,3.12.25L48,33.94a29.51,29.51,0,0,0-3.82-.32c-4.85,0-6.53,2.53-6.52,5.58" style="fill:#fff"/><path d="M120.06,46.6c2,0,3.44-2.29,3.44-5.56,0-2.1-.81-3.24-2.3-3.24-2,0-3.37,2.3-3.37,5.55,0,2.16.75,3.25,2.23,3.25m6.4,3.88h-4.11l.21-1.61a5.15,5.15,0,0,1-4,1.83c-3.16,0-5.25-2.72-5.25-6.85,0-5.49,3.24-10.12,7.07-10.12A4.93,4.93,0,0,1,124.54,36l1-5.79h4.28Z" style="fill:#fff"/><path d="M65.19,40.31c0-.34,0-.63,0-.84a1.91,1.91,0,0,0-2.05-2.13c-1.38,0-2.37,1.05-2.77,3h4.78m2.44,9.82a14.82,14.82,0,0,1-4.45.67c-4.85,0-7.38-2.54-7.38-7.39,0-5.67,3.22-9.83,7.58-9.83,3.57,0,5.86,2.33,5.86,6a17.74,17.74,0,0,1-.53,4.07H60.07a3.86,3.86,0,0,0,0,.52C60,46.07,61.32,47,63.84,47a10.26,10.26,0,0,0,4.51-1Z" style="fill:#fff"/><polyline points="21.22 50.48 16.87 50.48 19.36 34.88 13.81 50.48 10.85 50.48 10.48 34.97 7.87 50.48 3.8 50.48 7.2 30.19 13.44 30.19 13.62 42.75 17.83 30.19 24.57 30.19 21.22 50.48" style="fill:#fff"/><path d="M35.07,50.48h-3.6l.08-1.71a5.45,5.45,0,0,1-4.55,2c-2.35,0-4-1.84-4-4.51,0-4,2.8-6.36,7.62-6.36a14.53,14.53,0,0,1,1.77.13A4,4,0,0,0,32.6,39c0-1.09-.76-1.5-2.78-1.5a14,14,0,0,0-3.61.46l-.6.18-.39.11.6-3.71a17.28,17.28,0,0,1,5.2-.87c3.73,0,5.7,1.68,5.7,4.84a19.52,19.52,0,0,1-.35,3.27l-.91,5.85-.15,1.05-.11.84-.08.58-.05.45m-3.16-7.35a7.26,7.26,0,0,0-1-.07c-2.46,0-3.71.84-3.71,2.51a1.52,1.52,0,0,0,1.56,1.68C30.56,47.25,31.83,45.57,31.91,43.13Z" style="fill:#fff"/><path d="M103.48,50.48h-3.6l.08-1.71a5.45,5.45,0,0,1-4.55,2c-2.35,0-4-1.84-4-4.51,0-4,2.8-6.36,7.62-6.36a14.54,14.54,0,0,1,1.77.13A4,4,0,0,0,101,39c0-1.09-.76-1.5-2.78-1.5a14,14,0,0,0-3.61.46l-.6.18-.39.11.6-3.71a17.29,17.29,0,0,1,5.2-.87c3.73,0,5.7,1.68,5.7,4.84a19.5,19.5,0,0,1-.35,3.27l-.91,5.85-.15,1.05-.11.84-.08.58,0,.45m-3.16-7.35a7.23,7.23,0,0,0-1-.07c-2.46,0-3.71.84-3.71,2.51a1.52,1.52,0,0,0,1.56,1.68C99,47.25,100.24,45.57,100.32,43.13Z" style="fill:#fff"/><path d="M115.13,33.84a2.12,2.12,0,0,0-.44,0c-1.42,0-2.23.73-3.57,2.68l.38-2.5h-3.93l-2.65,16.5h4.35c1.55-10.09,2-11.83,4-11.83a1.66,1.66,0,0,1,.3,0,15.93,15.93,0,0,1,1.65-4.79l-.14,0" style="fill:#fff"/></g><g id="Layer_2" data-name="Layer 2"><path d="M230.85,69.65A40,40,0,1,0,204,80a39.89,39.89,0,0,0,26.85-10.35" style="fill:#0095db"/><path d="M230.85,69.65a40,40,0,0,0,0-59.29" style="fill:#0095db"/><path d="M230.85,69.65a40,40,0,0,0,0-59.29" style="fill:none;stroke:#0095db;stroke-width:0.326702223255726px"/><path d="M257.7,0a39.86,39.86,0,0,0-26.85,10.35,40.41,40.41,0,0,0-4,4.23h8.08a40.47,40.47,0,0,1,3,4.24H223.76a40,40,0,0,0-2.31,4.24h18.78a39.57,39.57,0,0,1,1.7,4.24H219.76a39.8,39.8,0,0,0-1.16,4.23h24.5a40.26,40.26,0,0,1-1.16,21.18H219.76a40.16,40.16,0,0,0,1.69,4.24h18.78a39.9,39.9,0,0,1-2.3,4.24H223.76a40,40,0,0,0,3,4.24h8.08a40.23,40.23,0,0,1-4,4.24A40,40,0,1,0,257.7,0" style="fill:#e20613"/><path d="M293.49,62.22h.15a.33.33,0,0,0,.16,0,.15.15,0,0,0,.07-.13.15.15,0,0,0-.06-.11.36.36,0,0,0-.17,0h-.14v.29m0,.64h-.27V61.73h.48a.53.53,0,0,1,.29.06.34.34,0,0,1,.14.28.31.31,0,0,1-.2.29l.21.5h-.29l-.17-.45h-.19Zm.17.42a1,1,0,1,0-1-1A1,1,0,0,0,293.67,63.28Zm-1.29-1a1.29,1.29,0,1,1,1.29,1.29A1.29,1.29,0,0,1,292.38,62.3Z" style="fill:#e30521"/><polyline points="197.75 51.13 192.73 51.13 195.68 35.54 188.87 51.13 184.66 51.13 183.84 35.63 180.54 51.13 175.97 51.13 179.83 30.85 187.74 30.85 187.82 43.4 193.3 30.85 201.68 30.85 197.75 51.13" style="fill:#06326e"/><path d="M253.38,50.92a12.89,12.89,0,0,1-3.58.54c-2.55,0-3.94-1.28-3.94-3.62a8.34,8.34,0,0,1,.15-1.48l.3-1.61.23-1.31,2.31-12.59h4.95l-.72,3.79h2.54l-.68,4H252.4l-1.31,6.88a4,4,0,0,0-.08.68c0,.85.51,1.22,1.7,1.22a4.7,4.7,0,0,0,1.34-.15l-.66,3.65" style="fill:#06326e"/><path d="M233.61,39.85c0,2.08,1.18,3.52,3.84,4.6,2,.83,2.36,1.07,2.36,1.82,0,1-.9,1.49-2.89,1.49a16.23,16.23,0,0,1-4.51-.65l-.69,3.8.22,0,.92.17c.3.05.73.1,1.31.14,1.2.09,2.12.14,2.78.14,5.32,0,7.77-1.74,7.77-5.5,0-2.26-1-3.59-3.55-4.59-2.11-.83-2.35-1-2.35-1.79s.84-1.35,2.46-1.35a32.58,32.58,0,0,1,3.62.25l.72-3.82a39.52,39.52,0,0,0-4.43-.32c-5.64,0-7.58,2.53-7.57,5.58" style="fill:#06326e"/><path d="M210.5,43.78a9.09,9.09,0,0,0-1.11-.07c-2.82,0-4.25.84-4.25,2.51a1.62,1.62,0,0,0,1.79,1.68c2,0,3.49-1.69,3.58-4.12m3.36,7.35h-4.14l.1-1.71a6.68,6.68,0,0,1-5.22,2,4.31,4.31,0,0,1-4.55-4.51c0-4,3.22-6.36,8.74-6.36a19.29,19.29,0,0,1,2,.13,3.53,3.53,0,0,0,.2-1.07c0-1.09-.87-1.5-3.19-1.5a18.38,18.38,0,0,0-4.14.46l-.69.18-.45.11.69-3.71a22.54,22.54,0,0,1,6-.88c4.28,0,6.54,1.68,6.54,4.84a17,17,0,0,1-.41,3.27l-1,5.85-.18,1.05-.13.84-.09.57Z" style="fill:#06326e"/><path d="M227.81,41c0-.34,0-.62,0-.84,0-1.34-.87-2.13-2.36-2.13s-2.72,1.05-3.18,3h5.49m2.42,9.81a19.31,19.31,0,0,1-5.1.67c-5.56,0-8.47-2.54-8.47-7.39,0-5.66,3.69-9.83,8.7-9.83,4.1,0,6.72,2.33,6.72,6a15.58,15.58,0,0,1-.61,4.07h-9.9a3.09,3.09,0,0,0,0,.52c0,1.91,1.48,2.89,4.37,2.89a13.28,13.28,0,0,0,5.17-1Z" style="fill:#06326e"/><path d="M278.31,41.68c0-1.72-.7-3.35-2.74-3.35-2.54,0-4.11,3-4.11,5.66,0,2.24,1.08,3.74,2.86,3.71,1.08,0,3.38-1.47,3.83-4a11.33,11.33,0,0,0,.16-2m5.06,2c-.75,5.49-4.58,7.92-9.67,7.92-5.63,0-7.91-3.42-7.91-7.6,0-5.85,3.85-9.81,9.8-9.81,5.17,0,7.91,3.26,7.91,7.44A10.49,10.49,0,0,1,283.37,43.65Z" style="fill:#06326e"/><path d="M285,48.59h.15a.33.33,0,0,0,.16,0,.15.15,0,0,0,.07-.13.14.14,0,0,0-.06-.12.36.36,0,0,0-.17,0H285v.29m0,.64h-.26V48.1h.48a.52.52,0,0,1,.29.06.34.34,0,0,1,.14.28.31.31,0,0,1-.2.29l.21.5h-.29l-.17-.45H285Zm.17.42a1,1,0,1,0-1-1A1,1,0,0,0,285.21,49.65Zm-1.29-1A1.29,1.29,0,1,1,285.21,50,1.29,1.29,0,0,1,283.92,48.67Z" style="fill:#fff"/><polyline points="199 49.96 194.02 49.96 196.98 34.37 190.17 49.96 185.63 49.96 184.8 34.46 181.83 49.96 177.31 49.96 181.18 29.68 188.94 29.68 189.35 42.24 194.83 29.68 202.93 29.68 199 49.96" style="fill:#fff"/><path d="M254.64,49.76a12.91,12.91,0,0,1-3.58.54c-2.55,0-3.94-1.28-3.94-3.62a8.15,8.15,0,0,1,.15-1.48l.3-1.61.23-1.3,2.31-12.59h5l-.72,3.79h2.54l-.68,4h-2.55l-1.31,6.88a3.91,3.91,0,0,0-.09.68c0,.85.51,1.22,1.7,1.22a4.67,4.67,0,0,0,1.34-.15l-.66,3.65" style="fill:#fff"/><path d="M267.43,38.2l-.11-.52,1-2.58-.37,0-.43-.1a2.81,2.81,0,0,0-.5,0c-1.63,0-2.81.73-4.34,2.68l.53-2.93H258L255,51.13h4.95c.68-3.78,1-5.93,1.38-7.72.66-3,2.88-4.32,4.45-4a2.59,2.59,0,0,1,.56.13l.3.11.83-1.43" style="fill:#06326e"/><path d="M269.18,33.6a2.72,2.72,0,0,0-.56-.18l-.43-.1a2.7,2.7,0,0,0-.5,0c-1.64,0-2.81.73-4.34,2.68l.44-2.5h-4.51l-3,16.49h5c1.78-10.09,2.55-11.85,4.94-11.85a5.78,5.78,0,0,1,.63,0l.58.12,1.8-4.66" style="fill:#fff"/><path d="M234.9,38.68c0,2.08,1.17,3.52,3.83,4.6,2,.83,2.36,1.07,2.36,1.82,0,1-.9,1.49-2.89,1.49a16.2,16.2,0,0,1-4.52-.65L233,49.74l.22,0,.92.17q.44.08,1.31.14,1.8.14,2.78.14c5.32,0,7.77-1.74,7.77-5.5,0-2.26-1-3.59-3.55-4.59-2.11-.83-2.35-1-2.35-1.79s.84-1.35,2.46-1.35a32.62,32.62,0,0,1,3.62.25l.72-3.82a39.47,39.47,0,0,0-4.43-.32c-5.63,0-7.58,2.53-7.57,5.58" style="fill:#fff"/><path d="M211.56,42.61a9.2,9.2,0,0,0-1.11-.07c-2.82,0-4.25.84-4.25,2.51A1.62,1.62,0,0,0,208,46.74c2,0,3.49-1.69,3.58-4.12M215.19,50h-4.14l.09-1.71a6.67,6.67,0,0,1-5.22,2,4.31,4.31,0,0,1-4.55-4.51c0-4,3.22-6.36,8.75-6.36a19.3,19.3,0,0,1,2,.13,3.51,3.51,0,0,0,.2-1.07c0-1.09-.87-1.5-3.19-1.5a18.36,18.36,0,0,0-4.14.46l-.69.18-.45.11.69-3.71a22.51,22.51,0,0,1,6-.88c4.28,0,6.54,1.68,6.54,4.84a17,17,0,0,1-.4,3.27l-1,5.85-.17,1-.13.84-.08.57Z" style="fill:#fff"/><path d="M228.87,39.79c0-.34,0-.62,0-.84,0-1.34-.87-2.13-2.36-2.13s-2.72,1.05-3.18,3h5.49m2.65,9.81a19.33,19.33,0,0,1-5.1.67c-5.57,0-8.47-2.54-8.47-7.39,0-5.66,3.69-9.83,8.7-9.83,4.1,0,6.71,2.33,6.71,6a15.61,15.61,0,0,1-.61,4.07h-9.9a3.19,3.19,0,0,0,0,.52c0,1.91,1.47,2.89,4.37,2.89a13.27,13.27,0,0,0,5.17-1Z" style="fill:#fff"/><path d="M279.53,40.37c0-1.73-.7-3.35-2.74-3.35-2.54,0-4.12,3-4.12,5.65,0,2.24,1.08,3.74,2.86,3.71,1.08,0,3.38-1.47,3.83-4a11.26,11.26,0,0,0,.16-2m5.13,2.11c-.74,5.48-4.58,7.92-9.67,7.92-5.63,0-7.91-3.42-7.91-7.6,0-5.85,3.85-9.81,9.8-9.81,5.16,0,7.91,3.26,7.91,7.44A10.44,10.44,0,0,1,284.66,42.48Z" style="fill:#fff"/></g><g id="Layer_3" data-name="Layer 3"><path d="M380.66,11.07,366,50.69l-1.57-8.05c-3.66-9.87-11.58-20.22-20.8-24.42L357,69.08h15.89l23.62-58Z" style="fill:#0033a0"/><polygon points="393.25 69.14 402.65 11.01 417.65 11.01 408.26 69.14 393.25 69.14 393.25 69.14" style="fill:#0033a0"/><path d="M462.71,12.45A37,37,0,0,0,449.26,10c-14.85,0-25.28,7.89-25.37,19.18-.1,8.36,7.46,13,13.14,15.8,5.86,2.84,7.82,4.67,7.8,7.21-.06,3.89-4.69,5.67-9,5.67a30.08,30.08,0,0,1-14.12-3l-1.95-.93-2.1,13c3.51,1.62,10,3,16.73,3.1,15.76,0,26-7.8,26.13-19.85.06-6.63-3.95-11.65-12.61-15.8-5.23-2.69-8.47-4.48-8.42-7.21,0-2.41,2.71-5,8.6-5a26.25,26.25,0,0,1,11.23,2.23l1.34.67,2-12.6Z" style="fill:#0033a0"/><path d="M501.2,11.07H489.6c-3.6,0-6.29,1-7.88,4.82L459.45,69.16h15.76s2.58-7.17,3.16-8.74l19.21,0c.46,2,1.83,8.7,1.83,8.7h13.94L501.2,11.07ZM482.69,48.53c1.25-3.34,6-16.25,6-16.25-.09.16,1.23-3.36,2-5.54l1,5,3.48,16.78Z" style="fill:#0033a0"/><path d="M352.35,11h-24.2L328,12c18.82,4.81,31.24,16.63,36.41,30.61l-5.26-26.72c-.9-3.68-3.54-4.77-6.8-4.9Z" style="fill:#ff9e16"/></g></svg>