<svg id="Layer_1" data-name="Layer 1" xmlns="http://www.w3.org/2000/svg" viewBox="0 0 92.61 80"><title>ideal</title><path d="M47.8,0c39,0,44.82,25,44.82,39.91C92.61,65.76,76.7,80,47.8,80H0V0Zm-44,3.76V76.24h44c26.59,0,41.05-12.39,41.05-36.33C88.85,15.3,73.17,3.76,47.8,3.76Z"/><rect x="9.67" y="45.24" width="14.1" height="25.09"/><circle cx="16.72" cy="32.6" r="8.76"/><path d="M53.13,36.7v4.06h-10V24.46h9.72v4.06H47.15v1.89H52.5v4.06H47.15V36.7Zm1.95,4.07L60,24.45h5.78l4.92,16.31H66.47l-.92-3.16H60.23l-.92,3.16Zm6.34-7.21h2.94L63,28.94h-.24Zm11.31-9.1h4.06V36.7h6c-1.65-22.22-19.13-27-35-27H30.86V24.46h2.51c4.57,0,7.41,3.1,7.41,8.08,0,5.14-2.77,8.21-7.41,8.21H30.86V70.34H47.8c25.82,0,34.81-12,35.13-29.58H72.73ZM30.86,28.52V36.7h2.51c1.74,0,3.35-.5,3.35-4.15s-1.79-4-3.35-4Z" style="fill:#d50072"/></svg>