<svg id="Layer_1" data-name="Layer 1" xmlns="http://www.w3.org/2000/svg" viewBox="0 0 536.31 160.71"><defs><style>.cls-1,.cls-4{fill:#0faa9a;}.cls-1,.cls-2{stroke:#fff;stroke-miterlimit:10;}.cls-1{stroke-width:4.25px;}.cls-2{fill:#8dd8d0;stroke-width:4.25px;}.cls-3{fill:#3d3d3d;}</style></defs><title>martine-hoopt-op-beter</title><path class="cls-1" d="M-7.36,142.84S40.31-1.73,97.52-1.73s70.87,76.54,70.87,76.54-24.57-34-68-34C61.22,40.79-7.36,142.84-7.36,142.84Z" transform="translate(14.23 3.85)"/><path class="cls-2" d="M97.52,74.81S121.75-1.73,168.38-1.73s70.87,76.54,70.87,76.54-43.46-34-70.87-34S97.52,74.81,97.52,74.81Z" transform="translate(14.23 3.85)"/><path class="cls-3" d="M257.18,128.39V71h18.76q9.34,0,14,3.86t4.71,11.43a11.65,11.65,0,0,1-2.29,7.11,14.82,14.82,0,0,1-6.23,4.79,13.31,13.31,0,0,1,7.35,4.95,14.2,14.2,0,0,1,2.7,8.69q0,7.72-5,12.14t-14.15,4.41h-19.9Zm7.57-32.9h11.43A12,12,0,0,0,284.11,93a8.34,8.34,0,0,0,3-6.75q0-4.74-2.76-6.89t-8.39-2.15H264.74V95.48Zm0,6.07V122.2h12.49q5.28,0,8.33-2.74a9.62,9.62,0,0,0,3.05-7.55q0-10.36-11.27-10.36H264.74Z" transform="translate(14.23 3.85)"/><path class="cls-3" d="M347.92,101.87H323.05V122.2h28.88v6.19H315.49V71h36.05V77.2H323.05V95.68h24.86v6.19Z" transform="translate(14.23 3.85)"/><path class="cls-3" d="M409.85,77.2H391.41v51.19h-7.53V77.2h-18.4V71h44.37V77.2Z" transform="translate(14.23 3.85)"/><path class="cls-3" d="M458.87,101.87H434V122.2h28.88v6.19H426.44V71h36.05V77.2H434V95.68h24.86v6.19Z" transform="translate(14.23 3.85)"/><path class="cls-3" d="M501.41,105.18H487.94v23.21h-7.6V71h19q9.69,0,14.92,4.41t5.22,12.85a15.44,15.44,0,0,1-2.9,9.34,17.29,17.29,0,0,1-8.06,6L522,127.91v0.47h-8.12ZM487.94,99h11.63q5.63,0,9-2.92a9.88,9.88,0,0,0,3.33-7.82q0-5.33-3.17-8.17t-9.16-2.88H487.94V99Z" transform="translate(14.23 3.85)"/><path class="cls-3" d="M60.77,128.55H58.28V115.12H47v13.44H44.51V100H47v12.15H58.28V100h2.49v28.55Z" transform="translate(14.23 3.85)"/><path class="cls-3" d="M91.23,114.24q0,6.86-2.6,10.78a8.73,8.73,0,0,1-14.53.07q-2.57-3.86-2.57-10.89t2.58-10.81a8.31,8.31,0,0,1,7.32-3.84,8.19,8.19,0,0,1,7.21,3.91Q91.23,107.36,91.23,114.24Zm-17.07,0q0,5.8,1.85,8.8a6.33,6.33,0,0,0,10.76,0q1.82-3,1.82-8.81t-1.81-8.74a5.88,5.88,0,0,0-5.35-3,6,6,0,0,0-5.41,3Q74.17,108.52,74.17,114.24Z" transform="translate(14.23 3.85)"/><path class="cls-3" d="M120.6,114.24q0,6.86-2.6,10.78a8.73,8.73,0,0,1-14.53.07q-2.57-3.86-2.57-10.89t2.58-10.81a8.31,8.31,0,0,1,7.32-3.84,8.19,8.19,0,0,1,7.21,3.91Q120.6,107.36,120.6,114.24Zm-17.07,0q0,5.8,1.85,8.8a6.33,6.33,0,0,0,10.76,0q1.82-3,1.82-8.81t-1.81-8.74a5.88,5.88,0,0,0-5.35-3,6,6,0,0,0-5.41,3Q103.53,108.52,103.53,114.24Z" transform="translate(14.23 3.85)"/><path class="cls-3" d="M145,108.32q0,4.34-2.22,6.67a8.35,8.35,0,0,1-6.35,2.33h-2.52v11.23h-2.49V100h5.55Q145,100,145,108.32Zm-11.09,6.15h2.24q3.31,0,4.79-1.43t1.48-4.57a5.73,5.73,0,0,0-1.39-4.22,5.93,5.93,0,0,0-4.34-1.39h-2.78v11.6Z" transform="translate(14.23 3.85)"/><path class="cls-3" d="M162,128.55h-2.49V102.95h-6.78V100h16.05v2.95H162v25.61Z" transform="translate(14.23 3.85)"/><path class="cls-3" d="M210.41,114.24q0,6.86-2.6,10.78a8.73,8.73,0,0,1-14.53.07q-2.57-3.86-2.57-10.89t2.58-10.81a8.31,8.31,0,0,1,7.32-3.84,8.19,8.19,0,0,1,7.21,3.91Q210.41,107.36,210.41,114.24Zm-17.07,0q0,5.8,1.85,8.8A6.33,6.33,0,0,0,206,123q1.82-3,1.82-8.81T206,105.5a5.88,5.88,0,0,0-5.35-3,6,6,0,0,0-5.41,3Q193.35,108.52,193.35,114.24Z" transform="translate(14.23 3.85)"/><path class="cls-3" d="M234.77,108.32q0,4.34-2.22,6.67a8.35,8.35,0,0,1-6.35,2.33h-2.52v11.23h-2.49V100h5.55Q234.77,100,234.77,108.32Zm-11.09,6.15h2.24q3.31,0,4.79-1.43t1.48-4.57a5.73,5.73,0,0,0-1.39-4.22,5.93,5.93,0,0,0-4.34-1.39h-2.78v11.6Z" transform="translate(14.23 3.85)"/><path class="cls-4" d="M266.81,0.78L285.4,47.19,304,0.78h9.73V57.66h-7.5V35.51l0.7-23.91L288.25,57.66h-5.74L263.88,11.72l0.74,23.79V57.66h-7.5V0.78h9.69Z" transform="translate(14.23 3.85)"/><path class="cls-4" d="M351.93,57.66a15.14,15.14,0,0,1-1-4.45,16.12,16.12,0,0,1-12,5.23,14.92,14.92,0,0,1-10.25-3.54,11.43,11.43,0,0,1-4-9,12,12,0,0,1,5-10.25q5-3.65,14.12-3.65h7V28.71a8.12,8.12,0,0,0-2.27-6q-2.27-2.25-6.68-2.25a10.54,10.54,0,0,0-6.48,2,5.76,5.76,0,0,0-2.62,4.73h-7.27A10,10,0,0,1,327.73,21a15.33,15.33,0,0,1,6.09-4.67,20.5,20.5,0,0,1,8.46-1.72q7.3,0,11.45,3.65T358,28.32V47.77A23.77,23.77,0,0,0,359.5,57v0.63h-7.58Zm-12-5.51a12.7,12.7,0,0,0,6.45-1.76,10.64,10.64,0,0,0,4.41-4.57V37.15h-5.66q-13.28,0-13.28,7.77a6.58,6.58,0,0,0,2.27,5.31A8.7,8.7,0,0,0,339.93,52.15Z" transform="translate(14.23 3.85)"/><path class="cls-4" d="M389.78,21.88a21.73,21.73,0,0,0-3.55-.27q-7.11,0-9.65,6.05v30h-7.23V15.39h7l0.12,4.88a11.25,11.25,0,0,1,10.08-5.66,7.39,7.39,0,0,1,3.2.55v6.72Z" transform="translate(14.23 3.85)"/><path class="cls-4" d="M408.18,5.16V15.39h7.89V21h-7.89V47.22A5.87,5.87,0,0,0,409.23,51a4.44,4.44,0,0,0,3.59,1.27,17.51,17.51,0,0,0,3.44-.47v5.83a21.08,21.08,0,0,1-5.55.78q-4.84,0-7.3-2.93t-2.46-8.32V21h-7.7V15.39h7.7V5.16h7.23Z" transform="translate(14.23 3.85)"/><path class="cls-4" d="M424.54,4.18a4.31,4.31,0,0,1,1.07-3A4,4,0,0,1,428.8,0,4.1,4.1,0,0,1,432,1.21a4.27,4.27,0,0,1,1.09,3A4.13,4.13,0,0,1,432,7.11a4.17,4.17,0,0,1-3.2,1.17,4.11,4.11,0,0,1-3.18-1.17A4.17,4.17,0,0,1,424.54,4.18Zm7.81,53.48h-7.23V15.39h7.23V57.66Z" transform="translate(14.23 3.85)"/><path class="cls-4" d="M450.75,15.39L451,20.7a15.4,15.4,0,0,1,12.66-6.09q13.4,0,13.52,15.12V57.66h-7.23v-28q0-4.57-2.09-6.76t-6.39-2.19a10.43,10.43,0,0,0-6.17,1.88,12.72,12.72,0,0,0-4.14,4.92V57.66h-7.23V15.39h6.84Z" transform="translate(14.23 3.85)"/><path class="cls-4" d="M505.6,58.44q-8.59,0-14-5.64t-5.39-15.1V36.37a25.37,25.37,0,0,1,2.4-11.23,18.74,18.74,0,0,1,6.72-7.73,16.9,16.9,0,0,1,9.36-2.79q8.24,0,12.81,5.43t4.57,15.55v3H493.45a15,15,0,0,0,3.65,10.1A11.48,11.48,0,0,0,506,52.54,12.59,12.59,0,0,0,512.47,51a16.29,16.29,0,0,0,4.65-4.14l4.41,3.44Q516.22,58.44,505.6,58.44Zm-0.9-37.89a9.64,9.64,0,0,0-7.34,3.18q-3,3.18-3.67,8.93h21.17V32.11q-0.31-5.51-3-8.54A9.08,9.08,0,0,0,504.7,20.55Z" transform="translate(14.23 3.85)"/></svg>