<svg id="Layer_1" data-name="Layer 1" xmlns="http://www.w3.org/2000/svg" viewBox="0 0 203.67 136.67"><title>MartineHooptOpBeter</title><path d="M186.39,348.92l12.3,32.7L211,348.92h9.58v42.66h-7.38V377.51l.73-18.81-12.6,32.87H196l-12.57-32.84.73,18.78v14.06h-7.38V348.92Z" transform="translate(-176.78 -347.77)" style="fill:#1e1e1c"/><path d="M247.56,391.57a11,11,0,0,1-.82-3,12,12,0,0,1-16.11.82,8.72,8.72,0,0,1-3-6.74,9,9,0,0,1,3.76-7.78q3.76-2.71,10.77-2.71h4.37v-2.08a5.55,5.55,0,0,0-1.38-3.94,5.46,5.46,0,0,0-4.19-1.48,6.27,6.27,0,0,0-4,1.22A3.76,3.76,0,0,0,235.4,369h-7.12a7.9,7.9,0,0,1,1.73-4.88,11.52,11.52,0,0,1,4.7-3.56,16.51,16.51,0,0,1,6.64-1.29q5.57,0,8.88,2.8a10,10,0,0,1,3.4,7.87v14.3a16.19,16.19,0,0,0,1.2,6.83v.5Zm-7.82-5.13a8.09,8.09,0,0,0,4-1,6.85,6.85,0,0,0,2.8-2.75v-6h-3.84a10.49,10.49,0,0,0-5.95,1.38,4.46,4.46,0,0,0-2,3.9,4.16,4.16,0,0,0,1.36,3.27A5.28,5.28,0,0,0,239.74,386.44Z" transform="translate(-176.78 -347.77)" style="fill:#1e1e1c"/><path d="M277.68,366.38a17.62,17.62,0,0,0-2.9-.23q-4.89,0-6.59,3.75v21.68h-7.12v-31.7h6.8l.18,3.54a8,8,0,0,1,7.15-4.13,6.67,6.67,0,0,1,2.52.41Z" transform="translate(-176.78 -347.77)" style="fill:#1e1e1c"/><path d="M292.56,352.17v7.71h5.6v5.27h-5.6v17.7a3.89,3.89,0,0,0,.72,2.62,3.33,3.33,0,0,0,2.56.81,11,11,0,0,0,2.49-.29v5.51a17.54,17.54,0,0,1-4.69.67q-8.2,0-8.2-9.05v-18h-5.21v-5.27h5.21v-7.71Z" transform="translate(-176.78 -347.77)" style="fill:#1e1e1c"/><path d="M303.61,351.61a3.82,3.82,0,0,1,1-2.75,3.91,3.91,0,0,1,3-1.09,4,4,0,0,1,3,1.09,3.79,3.79,0,0,1,1.05,2.75,3.71,3.71,0,0,1-1.05,2.7,4,4,0,0,1-3,1.08,3.94,3.94,0,0,1-3-1.08A3.73,3.73,0,0,1,303.61,351.61Zm7.56,40H304v-31.7h7.12Z" transform="translate(-176.78 -347.77)" style="fill:#1e1e1c"/><path d="M325.52,359.87l.21,3.66a11.4,11.4,0,0,1,9.23-4.25q9.9,0,10.08,11.34v20.95h-7.12V371a6.53,6.53,0,0,0-1.3-4.47,5.48,5.48,0,0,0-4.26-1.45,6.86,6.86,0,0,0-6.42,3.9v22.56h-7.12v-31.7Z" transform="translate(-176.78 -347.77)" style="fill:#1e1e1c"/><path d="M366.24,392.16a14.73,14.73,0,0,1-11-4.26q-4.2-4.26-4.2-11.35v-.88a19,19,0,0,1,1.83-8.48,13.94,13.94,0,0,1,5.14-5.82,13.59,13.59,0,0,1,7.38-2.08q6.47,0,10,4.13T379,375.11V378H358.25a9.52,9.52,0,0,0,2.62,6.21,7.87,7.87,0,0,0,5.79,2.29,9.64,9.64,0,0,0,8-4l3.84,3.66a12.81,12.81,0,0,1-5.08,4.41A15.92,15.92,0,0,1,366.24,392.16ZM365.39,365a6,6,0,0,0-4.73,2.05,10.63,10.63,0,0,0-2.3,5.71h13.56v-.53a8.65,8.65,0,0,0-1.9-5.41A6,6,0,0,0,365.39,365Z" transform="translate(-176.78 -347.77)" style="fill:#1e1e1c"/><path d="M189,428.93V417.61a5.52,5.52,0,0,0-1.11-3.83,4.47,4.47,0,0,0-3.44-1.2,6,6,0,0,0-4.58,1.58q-1.45,1.58-1.45,5.13v9.63h-1.59v-25h1.59v7.95l-.08,2.23h.11a5.85,5.85,0,0,1,2.47-2.28,8.65,8.65,0,0,1,3.71-.71q5.94,0,5.94,6.37v11.42Z" transform="translate(-176.78 -347.77)" style="fill:#1e1e1c"/><path d="M220.68,420.18a9.89,9.89,0,0,1-2.07,6.67,7.15,7.15,0,0,1-5.72,2.4,7.4,7.4,0,0,1-4-1.11,7.09,7.09,0,0,1-2.68-3.18,11.57,11.57,0,0,1-.93-4.78,9.82,9.82,0,0,1,2.07-6.66,7.13,7.13,0,0,1,5.68-2.38,7,7,0,0,1,5.64,2.42A9.92,9.92,0,0,1,220.68,420.18Zm-13.78,0a8.87,8.87,0,0,0,1.58,5.61,6,6,0,0,0,8.94,0,8.88,8.88,0,0,0,1.58-5.61,8.74,8.74,0,0,0-1.6-5.6,5.43,5.43,0,0,0-4.49-2,5.35,5.35,0,0,0-4.46,2A8.87,8.87,0,0,0,206.9,420.18Z" transform="translate(-176.78 -347.77)" style="fill:#1e1e1c"/><path d="M250,420.18a9.89,9.89,0,0,1-2.07,6.67,7.15,7.15,0,0,1-5.72,2.4,7.4,7.4,0,0,1-4-1.11,7.09,7.09,0,0,1-2.68-3.18,11.57,11.57,0,0,1-.93-4.78,9.82,9.82,0,0,1,2.07-6.66,7.13,7.13,0,0,1,5.68-2.38,7,7,0,0,1,5.64,2.42A9.93,9.93,0,0,1,250,420.18Zm-13.78,0a8.87,8.87,0,0,0,1.58,5.61,6,6,0,0,0,8.94,0,8.87,8.87,0,0,0,1.58-5.61,8.74,8.74,0,0,0-1.6-5.6,5.43,5.43,0,0,0-4.49-2,5.35,5.35,0,0,0-4.46,2A8.87,8.87,0,0,0,236.27,420.18Z" transform="translate(-176.78 -347.77)" style="fill:#1e1e1c"/><path d="M272.3,429.25a6.38,6.38,0,0,1-5.88-3h-.11l0,1.35q.06,1.19.06,2.6v6.65h-1.59V411.48h1.35l.31,2.49h.1a6.31,6.31,0,0,1,5.75-2.83,6.49,6.49,0,0,1,5.39,2.32q1.85,2.32,1.85,6.75a10.21,10.21,0,0,1-2,6.67A6.53,6.53,0,0,1,272.3,429.25Zm0-1.41a4.85,4.85,0,0,0,4.15-2,9.23,9.23,0,0,0,1.47-5.57q0-7.69-5.55-7.69a5.57,5.57,0,0,0-4.48,1.68q-1.43,1.68-1.43,5.47v.51q0,4.09,1.37,5.84T272.27,427.84Z" transform="translate(-176.78 -347.77)" style="fill:#1e1e1c"/><path d="M299,427.84a11.88,11.88,0,0,0,2.63-.26v1.28a8.43,8.43,0,0,1-2.67.39,4.34,4.34,0,0,1-3.41-1.24,5.74,5.74,0,0,1-1.1-3.89V412.86h-2.58v-.93l2.58-.72.8-3.95H296v4.22h5.12v1.38H296v11a5,5,0,0,0,.71,3A2.56,2.56,0,0,0,299,427.84Z" transform="translate(-176.78 -347.77)" style="fill:#1e1e1c"/><path d="M349.05,420.18a9.89,9.89,0,0,1-2.07,6.67,7.15,7.15,0,0,1-5.72,2.4,7.4,7.4,0,0,1-4-1.11,7.09,7.09,0,0,1-2.68-3.18,11.56,11.56,0,0,1-.93-4.78,9.83,9.83,0,0,1,2.07-6.66,7.14,7.14,0,0,1,5.68-2.38,7,7,0,0,1,5.64,2.42A9.93,9.93,0,0,1,349.05,420.18Zm-13.78,0a8.87,8.87,0,0,0,1.58,5.61,6,6,0,0,0,8.94,0,8.88,8.88,0,0,0,1.58-5.61,8.74,8.74,0,0,0-1.6-5.6,5.43,5.43,0,0,0-4.49-2,5.35,5.35,0,0,0-4.46,2A8.87,8.87,0,0,0,335.28,420.18Z" transform="translate(-176.78 -347.77)" style="fill:#1e1e1c"/><path d="M371.31,429.25a6.38,6.38,0,0,1-5.88-3h-.11l0,1.35q.06,1.19.06,2.6v6.65h-1.59V411.48h1.35l.31,2.49h.1a6.31,6.31,0,0,1,5.75-2.83,6.49,6.49,0,0,1,5.39,2.32q1.85,2.32,1.85,6.75a10.21,10.21,0,0,1-2,6.67A6.53,6.53,0,0,1,371.31,429.25Zm0-1.41a4.85,4.85,0,0,0,4.15-2,9.23,9.23,0,0,0,1.47-5.57q0-7.69-5.55-7.69a5.57,5.57,0,0,0-4.48,1.68q-1.43,1.68-1.43,5.47v.51q0,4.09,1.37,5.84T371.28,427.84Z" transform="translate(-176.78 -347.77)" style="fill:#1e1e1c"/><path d="M176.78,484.45V441.79H191.4q7.24,0,11,2.9t3.78,8.64a9.21,9.21,0,0,1-1.58,5.27,10.18,10.18,0,0,1-4.63,3.63,9.42,9.42,0,0,1,5.35,3.53,10.28,10.28,0,0,1,1.89,6.23q0,6-3.85,9.23t-11,3.22Zm7.41-24.7h7.27a8.4,8.4,0,0,0,5.41-1.57,5.37,5.37,0,0,0,1.95-4.44q0-3.16-1.8-4.57t-5.61-1.41h-7.21Zm0,5.45v13.27h8.23a8,8,0,0,0,5.45-1.72,6,6,0,0,0,2-4.78q0-6.62-6.8-6.77Z" transform="translate(-176.78 -347.77)" style="fill:#1e1e1c"/><path d="M246.76,465.4H229.25v13.07h20.48v6H221.83V441.79h27.69v6H229.25v11.78h17.52Z" transform="translate(-176.78 -347.77)" style="fill:#1e1e1c"/><path d="M294.36,447.77h-13.3v36.68h-7.35V447.77H260.53v-6h33.84Z" transform="translate(-176.78 -347.77)" style="fill:#1e1e1c"/><path d="M332.09,465.4H314.57v13.07h20.48v6H307.16V441.79h27.69v6H314.57v11.78h17.52Z" transform="translate(-176.78 -347.77)" style="fill:#1e1e1c"/><path d="M364,468H355.7v16.41h-7.41V441.79h15q7.38,0,11.4,3.31t4,9.59a12,12,0,0,1-2.07,7.17,13.14,13.14,0,0,1-5.76,4.44l9.58,17.76v.38h-7.94Zm-8.26-6h7.62a8.47,8.47,0,0,0,5.86-1.89,6.59,6.59,0,0,0,2.11-5.17,7,7,0,0,0-1.95-5.3q-1.95-1.87-5.82-1.93H355.7Z" transform="translate(-176.78 -347.77)" style="fill:#1e1e1c"/></svg>