<svg id="Layer_1" data-name="Layer 1" xmlns="http://www.w3.org/2000/svg" viewBox="0 0 133.72 24"><defs><style>.cls-1{fill:#ee3124;}.cls-2{fill:#231f20;}.cls-3{fill:#fff;}</style></defs><title>virtual-pages</title><path class="cls-1" d="M25,11.49H28.2L30,17.74h0l1.83-6.24h3l-3.25,8.77H28.2Z" transform="translate(0)"/><path class="cls-1" d="M39.4,10.06h-3V7.84h3v2.22Zm-3,1.44h3v8.77h-3V11.49Z" transform="translate(0)"/><path class="cls-1" d="M47.91,13.92a3.53,3.53,0,0,0-1-.1c-1.41,0-2.2,1-2.2,2.75v3.7h-3V11.49H44.4v1.61h0A2.71,2.71,0,0,1,47,11.29a6.65,6.65,0,0,1,1,.1Z" transform="translate(0)"/><path class="cls-1" d="M48.34,11.49h1.79v-2l3-.93v2.9h2.12v2.12H53.11v3.23c0,1.06.25,1.6,1.21,1.6a5.83,5.83,0,0,0,.93-0.11l0.1,2a14.51,14.51,0,0,1-1.9.17c-2.71,0-3.37-1.2-3.37-3.28V13.61H48.34V11.49Z" transform="translate(0)"/><path class="cls-1" d="M65.94,20.27H63.18V18.65h0a3.33,3.33,0,0,1-3.2,1.82A3.18,3.18,0,0,1,56.6,17V11.49h3v4.24c0,1.65.57,2.21,1.4,2.21,1.25,0,1.89-.86,1.89-2.74v-3.7h3v8.77Z" transform="translate(0)"/><path class="cls-1" d="M73.57,20.27c0-.47-0.07-0.93-0.07-1.38h0a3,3,0,0,1-2.78,1.58c-1.73,0-3.28-.86-3.28-2.76,0-2.67,2.91-3,4.53-3a9,9,0,0,1,1.42.12c0-1.19-.91-1.52-2-1.52a5.68,5.68,0,0,0-2.8.66l0-2.05a9,9,0,0,1,3.5-.62c2.24,0,4.18,1,4.18,3.64v3.27a10.77,10.77,0,0,0,.17,2.07H73.57Zm-2.09-1.82a2,2,0,0,0,1.87-2.07c-0.39,0-.83-0.05-1.28-0.05-1,0-1.84.32-1.84,1.16A1.07,1.07,0,0,0,71.49,18.44Z" transform="translate(0)"/><path class="cls-1" d="M78.48,7.63h3V20.27h-3V7.63Z" transform="translate(0)"/><path class="cls-2" d="M83.63,11.49h2.79v1.58h0a3.46,3.46,0,0,1,3.27-1.79c2.42,0,3.76,2.31,3.76,4.43,0,2.59-1.4,4.75-4,4.75A3.05,3.05,0,0,1,86.7,19h0V23.8h-3V11.49Zm4.88,2.12a2,2,0,0,0-1.85,2.29,2.05,2.05,0,0,0,1.85,2.24c1.14,0,1.84-1,1.84-2.36A1.94,1.94,0,0,0,88.52,13.61Z" transform="translate(0)"/><path class="cls-2" d="M100.7,20.27c0-.47-0.07-0.93-0.07-1.38h0a3,3,0,0,1-2.78,1.58c-1.73,0-3.28-.86-3.28-2.76,0-2.67,2.91-3,4.53-3a9,9,0,0,1,1.42.12c0-1.19-.91-1.52-2-1.52a5.68,5.68,0,0,0-2.79.66l-0.05-2.05a9.05,9.05,0,0,1,3.5-.62c2.24,0,4.18,1,4.18,3.64v3.27a10.89,10.89,0,0,0,.17,2.07H100.7Zm-2.09-1.82a2,2,0,0,0,1.87-2.07c-0.39,0-.82-0.05-1.28-0.05-1,0-1.83.32-1.83,1.16A1.07,1.07,0,0,0,98.61,18.44Z" transform="translate(0)"/><path class="cls-2" d="M114.54,19.23c0,3.61-1.75,4.77-5.29,4.77a10.28,10.28,0,0,1-3.35-.55l0.15-2.4a6,6,0,0,0,3,.72c1.75,0,2.69-.82,2.69-2.54V18.77h0a3.42,3.42,0,0,1-2.95,1.5c-2.41,0-3.91-1.82-3.91-4.41s1.23-4.56,4-4.56a3.43,3.43,0,0,1,3,1.79h0V11.49h2.75v7.74Zm-4.87-1.29a2,2,0,0,0,1.94-2.26,1.92,1.92,0,0,0-1.94-2.07c-1.13,0-1.72,1-1.72,2.19A1.88,1.88,0,0,0,109.67,17.94Z" transform="translate(0)"/><path class="cls-2" d="M119.14,16.76c0.17,1.21,1.1,1.68,2.58,1.68a5.68,5.68,0,0,0,2.68-.67v2.14a8.77,8.77,0,0,1-3.21.56c-2.9,0-5.1-1.7-5.1-4.6a4.35,4.35,0,0,1,4.7-4.58c3.25,0,4.43,2.31,4.43,4.92v0.56h-6.06ZM122.47,15a1.61,1.61,0,0,0-1.69-1.84A1.7,1.7,0,0,0,119.11,15h3.37Z" transform="translate(0)"/><path class="cls-2" d="M126.62,17.84a7.51,7.51,0,0,0,2.85.61c0.62,0,1.23-.1,1.23-0.71,0-1.48-4.31-.44-4.31-3.6,0-2,2-2.85,3.74-2.85a8.34,8.34,0,0,1,3.08.51L133,13.9a5,5,0,0,0-2.36-.59c-0.66,0-1.4.12-1.4,0.61,0,1.36,4.51.29,4.51,3.62,0,2.34-2.11,2.93-4.09,2.93a9.81,9.81,0,0,1-3.19-.42Z" transform="translate(0)"/><path class="cls-2" d="M1.54,18.34V3.86A2.32,2.32,0,0,1,3.86,1.54H18.54A3.87,3.87,0,0,0,15.45,0H3.86A3.86,3.86,0,0,0,0,3.86V15.45a3.86,3.86,0,0,0,1.55,3.09C1.54,18.47,1.54,18.41,1.54,18.34Z" transform="translate(0)"/><polygon class="cls-3" points="20.28 17.4 20.28 6.44 3.81 6.44 3.81 20.28 17.4 20.28 20.28 17.4"/><path class="cls-1" d="M18.35,1.93H3.86A1.93,1.93,0,0,0,1.93,3.86V18.34a1.93,1.93,0,0,0,1.93,1.94H7.12L4.42,16.48A1,1,0,0,1,6,15.37H6l2.4,3.37c0.26,0.37.74,0.32,0.78-.16v-6a1,1,0,0,1,1.93,0v7.73h1V12.55a1,1,0,0,1,1-1h5.31a1.45,1.45,0,0,0,0-2.9H15.93a1,1,0,1,1,0-1.93h2.41a3.35,3.35,0,0,1,1.93.61V3.86A1.93,1.93,0,0,0,18.35,1.93ZM14.48,13.52A0.48,0.48,0,0,0,14,14v6.28h4.35a1.93,1.93,0,0,0,1.93-1.94V12.91a3.33,3.33,0,0,1-1.93.61H14.48Z" transform="translate(0)"/></svg>