<svg id="Layer_1" data-name="Layer 1" xmlns="http://www.w3.org/2000/svg" viewBox="0 0 522.17 128.94"><defs><style>.cls-1{fill:#0faa9a;}.cls-2{fill:#8dd8d0;}.cls-3{fill:#3d3d3d;}</style></defs><title>martine-hoping-for-better</title><path class="cls-1" d="M177.65,91.71a100,100,0,0,1,22.08,17,144,144,0,0,0-8.12-22.17A97.77,97.77,0,0,0,177.65,91.71Z" transform="translate(-35.47 -41.79)"/><path class="cls-1" d="M146.68,81.19q1.15-2,2.39-4a113.72,113.72,0,0,1,18.41-23.07,54.3,54.3,0,0,0-34.55-11.95c-44.24,0-83.52,91.54-97.47,128.2,20.17-27.82,68.74-89.93,100.3-89.93A82.72,82.72,0,0,1,146.68,81.19Z" transform="translate(-35.47 -41.79)"/><path class="cls-2" d="M203.8,42.19c-36.59,0-59.37,50.16-66.46,68.47,12.83-9.26,44.31-30.2,66.46-30.2,11.75,0,27.5,5.82,46.8,17.31,8,4.79,15.07,9.62,19.67,12.93C263.19,92.41,240.41,42.19,203.8,42.19Z" transform="translate(-35.47 -41.79)"/><path class="cls-3" d="M292.53,170.18V112.81h15.76q7.84,0,11.8,3.86t4,11.43a13.2,13.2,0,0,1-1.92,7.11,13,13,0,0,1-5.23,4.79,11.32,11.32,0,0,1,6.17,4.95,16.12,16.12,0,0,1,2.27,8.69q0,7.72-4.2,12.14t-11.88,4.41H292.53Zm6.35-32.9h9.6a8.59,8.59,0,0,0,9.17-9.24q0-4.74-2.32-6.89T308.28,119h-9.4v18.28Zm0,6.07V164h10.49a9.13,9.13,0,0,0,7-2.74,10.6,10.6,0,0,0,2.56-7.55q0-10.36-9.47-10.36H298.88Z" transform="translate(-35.47 -41.79)"/><path class="cls-3" d="M367.74,143.66H346.85V164h24.26v6.19H340.49V112.81h30.29V119H346.85v18.48h20.89v6.19Z" transform="translate(-35.47 -41.79)"/><path class="cls-3" d="M418.74,119H403.25v51.19h-6.32V119H381.47v-6.19h37.27V119Z" transform="translate(-35.47 -41.79)"/><path class="cls-3" d="M465.48,119H450v51.19h-6.32V119H428.21v-6.19h37.27V119Z" transform="translate(-35.47 -41.79)"/><path class="cls-3" d="M505.64,143.66H484.75V164H509v6.19H478.4V112.81h30.29V119H484.75v18.48h20.89v6.19Z" transform="translate(-35.47 -41.79)"/><path class="cls-3" d="M540.36,147H529v23.21h-6.39V112.81h16q8.14,0,12.53,4.41t4.39,12.85a17.54,17.54,0,0,1-2.43,9.34,15,15,0,0,1-6.77,6l11.32,24.35v0.47h-6.82ZM529,140.78h9.76a9.94,9.94,0,0,0,7.53-2.92,10.83,10.83,0,0,0,2.8-7.82q0-5.33-2.66-8.17t-7.7-2.88H529v21.79Z" transform="translate(-35.47 -41.79)"/><path class="cls-3" d="M90.46,170.35H88V156.91H76.69v13.44H74.2V141.79h2.49v12.15H88V141.79h2.49v28.55Z" transform="translate(-35.47 -41.79)"/><path class="cls-3" d="M117,156q0,6.86-2.6,10.78a8.73,8.73,0,0,1-14.53.07Q97.32,163,97.32,156t2.58-10.81a8.31,8.31,0,0,1,7.32-3.84,8.19,8.19,0,0,1,7.21,3.91Q117,149.16,117,156ZM100,156q0,5.8,1.85,8.8a6.33,6.33,0,0,0,10.76,0q1.82-3,1.82-8.81t-1.81-8.74a5.88,5.88,0,0,0-5.35-3,6,6,0,0,0-5.41,3Q100,150.31,100,156Z" transform="translate(-35.47 -41.79)"/><path class="cls-3" d="M137.48,150.11q0,4.34-2.22,6.67a8.35,8.35,0,0,1-6.35,2.33h-2.52v11.23H123.9V141.79h5.55Q137.48,141.79,137.48,150.11Zm-11.09,6.15h2.24q3.31,0,4.79-1.43t1.48-4.57a5.73,5.73,0,0,0-1.39-4.22,5.93,5.93,0,0,0-4.34-1.39h-2.78v11.6Z" transform="translate(-35.47 -41.79)"/><path class="cls-3" d="M144.06,170.35V141.79h2.49v28.55h-2.49Z" transform="translate(-35.47 -41.79)"/><path class="cls-3" d="M171.25,170.35h-2.84l-11.7-24h-0.12q0.23,4.22.23,7.73v16.23h-2.3V141.79h2.81L169,165.66h0.12q0-.53-0.13-3.39t-0.07-4.09V141.79h2.33v28.55Z" transform="translate(-35.47 -41.79)"/><path class="cls-3" d="M188.66,155.39h7.28v13.89a18.64,18.64,0,0,1-3.46,1.09,19.9,19.9,0,0,1-4.07.37,8.73,8.73,0,0,1-7.57-3.86q-2.71-3.86-2.71-10.81a20.91,20.91,0,0,1,1.34-7.8,11.07,11.07,0,0,1,3.86-5.12,10,10,0,0,1,5.9-1.77,12.73,12.73,0,0,1,6.39,1.68l-1,2.93a11.34,11.34,0,0,0-5.58-1.64,7.07,7.07,0,0,0-6.11,3.11q-2.2,3.11-2.2,8.61,0,5.78,2.12,8.77a7.13,7.13,0,0,0,6.22,3,14.11,14.11,0,0,0,4.35-.68v-8.79h-4.79v-3Z" transform="translate(-35.47 -41.79)"/><path class="cls-3" d="M215.56,170.35h-2.49V141.79H225v2.95h-9.45v10.45h8.88v2.95h-8.88v12.21Z" transform="translate(-35.47 -41.79)"/><path class="cls-3" d="M249.25,156q0,6.86-2.6,10.78a8.73,8.73,0,0,1-14.53.07Q229.54,163,229.54,156t2.58-10.81a8.31,8.31,0,0,1,7.32-3.84,8.19,8.19,0,0,1,7.21,3.91Q249.25,149.16,249.25,156Zm-17.07,0q0,5.8,1.85,8.8a6.33,6.33,0,0,0,10.76,0q1.82-3,1.82-8.81t-1.81-8.74a5.88,5.88,0,0,0-5.35-3,6,6,0,0,0-5.41,3Q232.18,150.31,232.18,156Z" transform="translate(-35.47 -41.79)"/><path class="cls-3" d="M258.61,158.47v11.88h-2.49V141.79H262q3.94,0,5.82,2t1.88,6.05q0,5.66-4.31,7.66l5.82,12.83h-2.94l-5.19-11.87h-4.47Zm0-2.85H262a4.9,4.9,0,0,0,3.87-1.4,6.18,6.18,0,0,0,1.23-4.19,5.6,5.6,0,0,0-1.25-4.08,5.52,5.52,0,0,0-4-1.25h-3.24v10.92Z" transform="translate(-35.47 -41.79)"/><path class="cls-1" d="M302.22,42.57L320.82,89l18.59-46.41h9.73V99.45h-7.5V77.3l0.7-23.91L323.67,99.45h-5.74L299.3,53.51,300,77.3V99.45h-7.5V42.57h9.69Z" transform="translate(-35.47 -41.79)"/><path class="cls-1" d="M387.34,99.45a15.14,15.14,0,0,1-1-4.45,16.12,16.12,0,0,1-12,5.23A14.92,14.92,0,0,1,364,96.69a11.43,11.43,0,0,1-4-9,12,12,0,0,1,5-10.25q5-3.65,14.12-3.65h7V70.5a8.12,8.12,0,0,0-2.27-6q-2.27-2.25-6.68-2.25a10.54,10.54,0,0,0-6.48,2,5.76,5.76,0,0,0-2.62,4.73H360.9a10,10,0,0,1,2.25-6.11,15.33,15.33,0,0,1,6.09-4.67,20.5,20.5,0,0,1,8.46-1.72q7.3,0,11.45,3.65t4.3,10.06V89.57a23.77,23.77,0,0,0,1.48,9.26v0.63h-7.58Zm-12-5.51a12.7,12.7,0,0,0,6.45-1.76,10.64,10.64,0,0,0,4.41-4.57V78.94h-5.66q-13.28,0-13.28,7.77A6.58,6.58,0,0,0,369.53,92,8.7,8.7,0,0,0,375.35,93.94Z" transform="translate(-35.47 -41.79)"/><path class="cls-1" d="M425.19,63.67a21.73,21.73,0,0,0-3.55-.27q-7.11,0-9.65,6.05v30h-7.23V57.18h7l0.12,4.88A11.25,11.25,0,0,1,422,56.4a7.39,7.39,0,0,1,3.2.55v6.72Z" transform="translate(-35.47 -41.79)"/><path class="cls-1" d="M443.59,46.95V57.18h7.89v5.59h-7.89V89a5.87,5.87,0,0,0,1.05,3.81,4.44,4.44,0,0,0,3.59,1.27,17.51,17.51,0,0,0,3.44-.47v5.83a21.08,21.08,0,0,1-5.55.78q-4.84,0-7.3-2.93T436.37,89V62.77h-7.7V57.18h7.7V46.95h7.23Z" transform="translate(-35.47 -41.79)"/><path class="cls-1" d="M460,46A4.31,4.31,0,0,1,461,43a4,4,0,0,1,3.18-1.21,4.1,4.1,0,0,1,3.2,1.21,4.27,4.27,0,0,1,1.09,3A4.28,4.28,0,1,1,460,46Zm7.81,53.48h-7.23V57.18h7.23V99.45Z" transform="translate(-35.47 -41.79)"/><path class="cls-1" d="M486.17,57.18l0.23,5.31a15.4,15.4,0,0,1,12.66-6.09q13.4,0,13.52,15.12V99.45h-7.23v-28q0-4.57-2.09-6.76t-6.39-2.19a10.43,10.43,0,0,0-6.17,1.88,12.72,12.72,0,0,0-4.14,4.92V99.45h-7.23V57.18h6.84Z" transform="translate(-35.47 -41.79)"/><path class="cls-1" d="M541,100.23q-8.59,0-14-5.64t-5.39-15.1V78.16A25.37,25.37,0,0,1,524,66.93a18.74,18.74,0,0,1,6.72-7.73,16.9,16.9,0,0,1,9.36-2.79q8.24,0,12.81,5.43t4.57,15.55v3H528.87a15,15,0,0,0,3.65,10.1,11.48,11.48,0,0,0,8.89,3.85,12.59,12.59,0,0,0,6.48-1.56,16.29,16.29,0,0,0,4.65-4.14L557,92.07Q551.64,100.23,541,100.23Zm-0.9-37.89a9.64,9.64,0,0,0-7.34,3.18q-3,3.18-3.67,8.93h21.17V73.9q-0.31-5.51-3-8.54A9.08,9.08,0,0,0,540.12,62.34Z" transform="translate(-35.47 -41.79)"/></svg>