<svg id="Layer_1" data-name="Layer 1" xmlns="http://www.w3.org/2000/svg" viewBox="0 0 522.03 128.94"><defs><style>.cls-1{fill:#0faa9a;}.cls-2{fill:#8dd8d0;}.cls-3{fill:#3d3d3d;}</style></defs><title>martine-hoopt-op-beter</title><path class="cls-1" d="M184.49,88.88a100,100,0,0,1,22.08,17,144,144,0,0,0-8.12-22.17A97.77,97.77,0,0,0,184.49,88.88Z" transform="translate(-42.3 -38.96)"/><path class="cls-1" d="M153.52,78.35q1.15-2,2.39-4a113.72,113.72,0,0,1,18.41-23.07,54.3,54.3,0,0,0-34.55-11.95c-44.24,0-83.52,91.54-97.47,128.2C62.47,139.74,111,77.63,142.6,77.63A82.72,82.72,0,0,1,153.52,78.35Z" transform="translate(-42.3 -38.96)"/><path class="cls-2" d="M210.63,39.36c-36.59,0-59.37,50.16-66.46,68.47,12.83-9.26,44.31-30.2,66.46-30.2,11.75,0,27.5,5.82,46.8,17.31,8,4.79,15.07,9.62,19.67,12.93C270,89.57,247.25,39.36,210.63,39.36Z" transform="translate(-42.3 -38.96)"/><path class="cls-3" d="M299.43,167.35V110h18.76q9.34,0,14,3.86t4.71,11.43a11.65,11.65,0,0,1-2.29,7.11,14.82,14.82,0,0,1-6.23,4.79,13.31,13.31,0,0,1,7.35,4.95,14.2,14.2,0,0,1,2.7,8.69q0,7.72-5,12.14t-14.15,4.41h-19.9Zm7.57-32.9h11.43a12,12,0,0,0,7.94-2.49,8.34,8.34,0,0,0,3-6.75q0-4.74-2.76-6.89t-8.39-2.15H307v18.28Zm0,6.07v20.65h12.49q5.28,0,8.33-2.74a9.62,9.62,0,0,0,3.05-7.55q0-10.36-11.27-10.36H307Z" transform="translate(-42.3 -38.96)"/><path class="cls-3" d="M390.17,140.83H365.3v20.33h28.88v6.19H357.74V110h36.05v6.19H365.3v18.48h24.86v6.19Z" transform="translate(-42.3 -38.96)"/><path class="cls-3" d="M452.1,116.16H433.66v51.19h-7.53V116.16h-18.4V110H452.1v6.19Z" transform="translate(-42.3 -38.96)"/><path class="cls-3" d="M501.12,140.83H476.25v20.33h28.88v6.19H468.69V110h36.05v6.19H476.25v18.48h24.86v6.19Z" transform="translate(-42.3 -38.96)"/><path class="cls-3" d="M543.66,144.14H530.19v23.21h-7.6V110h19q9.69,0,14.92,4.41t5.22,12.85a15.44,15.44,0,0,1-2.9,9.34,17.29,17.29,0,0,1-8.06,6l13.48,24.35v0.47h-8.12ZM530.19,138h11.63q5.63,0,9-2.92a9.88,9.88,0,0,0,3.33-7.82q0-5.33-3.17-8.17t-9.16-2.88H530.19V138Z" transform="translate(-42.3 -38.96)"/><path class="cls-3" d="M103,167.51h-2.49V154.08H89.25v13.44H86.76V139h2.49v12.15h11.28V139H103v28.55Z" transform="translate(-42.3 -38.96)"/><path class="cls-3" d="M133.48,153.2q0,6.86-2.6,10.78a8.73,8.73,0,0,1-14.53.07q-2.57-3.86-2.57-10.89t2.58-10.81a8.31,8.31,0,0,1,7.32-3.84,8.19,8.19,0,0,1,7.21,3.91Q133.48,146.32,133.48,153.2Zm-17.07,0q0,5.8,1.85,8.8A6.33,6.33,0,0,0,129,162q1.82-3,1.82-8.81T129,144.46a5.88,5.88,0,0,0-5.35-3,6,6,0,0,0-5.41,3Q116.42,147.47,116.42,153.2Z" transform="translate(-42.3 -38.96)"/><path class="cls-3" d="M162.85,153.2q0,6.86-2.6,10.78a8.73,8.73,0,0,1-14.53.07q-2.57-3.86-2.57-10.89t2.58-10.81a8.31,8.31,0,0,1,7.32-3.84,8.19,8.19,0,0,1,7.21,3.91Q162.85,146.32,162.85,153.2Zm-17.07,0q0,5.8,1.85,8.8a6.33,6.33,0,0,0,10.76,0q1.82-3,1.82-8.81t-1.81-8.74a5.88,5.88,0,0,0-5.35-3,6,6,0,0,0-5.41,3Q145.78,147.47,145.78,153.2Z" transform="translate(-42.3 -38.96)"/><path class="cls-3" d="M187.2,147.28q0,4.34-2.22,6.67a8.35,8.35,0,0,1-6.35,2.33h-2.52v11.23h-2.49V139h5.55Q187.2,139,187.2,147.28Zm-11.09,6.15h2.24q3.31,0,4.79-1.43t1.48-4.57a5.73,5.73,0,0,0-1.39-4.22,5.93,5.93,0,0,0-4.34-1.39h-2.78v11.6Z" transform="translate(-42.3 -38.96)"/><path class="cls-3" d="M204.28,167.51h-2.49V141.91H195V139h16.05v2.95h-6.78v25.61Z" transform="translate(-42.3 -38.96)"/><path class="cls-3" d="M252.66,153.2q0,6.86-2.6,10.78a8.73,8.73,0,0,1-14.53.07Q233,160.19,233,153.16t2.58-10.81a8.31,8.31,0,0,1,7.32-3.84,8.19,8.19,0,0,1,7.21,3.91Q252.66,146.32,252.66,153.2Zm-17.07,0q0,5.8,1.85,8.8a6.33,6.33,0,0,0,10.76,0q1.82-3,1.82-8.81t-1.81-8.74a5.88,5.88,0,0,0-5.35-3,6,6,0,0,0-5.41,3Q235.6,147.47,235.6,153.2Z" transform="translate(-42.3 -38.96)"/><path class="cls-3" d="M277,147.28q0,4.34-2.22,6.67a8.35,8.35,0,0,1-6.35,2.33h-2.52v11.23h-2.49V139H269Q277,139,277,147.28Zm-11.09,6.15h2.24q3.31,0,4.79-1.43t1.48-4.57a5.73,5.73,0,0,0-1.39-4.22,5.93,5.93,0,0,0-4.34-1.39h-2.78v11.6Z" transform="translate(-42.3 -38.96)"/><path class="cls-1" d="M309.06,39.74l18.59,46.41,18.59-46.41H356V96.62h-7.5V74.47l0.7-23.91L330.5,96.62h-5.74L306.13,50.68l0.74,23.79V96.62h-7.5V39.74h9.69Z" transform="translate(-42.3 -38.96)"/><path class="cls-1" d="M394.18,96.62a15.14,15.14,0,0,1-1-4.45,16.12,16.12,0,0,1-12,5.23,14.92,14.92,0,0,1-10.25-3.54,11.43,11.43,0,0,1-4-9,12,12,0,0,1,5-10.25Q376.91,71,386,71h7V67.67a8.12,8.12,0,0,0-2.27-6q-2.27-2.25-6.68-2.25a10.54,10.54,0,0,0-6.48,2A5.76,5.76,0,0,0,375,66.07h-7.27A10,10,0,0,1,370,60a15.33,15.33,0,0,1,6.09-4.67,20.5,20.5,0,0,1,8.46-1.72q7.3,0,11.45,3.65t4.3,10.06V86.73A23.77,23.77,0,0,0,401.75,96v0.63h-7.58Zm-12-5.51a12.7,12.7,0,0,0,6.45-1.76A10.64,10.64,0,0,0,393,84.78V76.11h-5.66q-13.28,0-13.28,7.77a6.58,6.58,0,0,0,2.27,5.31A8.7,8.7,0,0,0,382.18,91.11Z" transform="translate(-42.3 -38.96)"/><path class="cls-1" d="M432,60.83a21.73,21.73,0,0,0-3.55-.27q-7.11,0-9.65,6.05v30H411.6V54.35h7l0.12,4.88a11.25,11.25,0,0,1,10.08-5.66,7.39,7.39,0,0,1,3.2.55v6.72Z" transform="translate(-42.3 -38.96)"/><path class="cls-1" d="M450.43,44.12V54.35h7.89v5.59h-7.89V86.18A5.87,5.87,0,0,0,451.48,90a4.44,4.44,0,0,0,3.59,1.27,17.51,17.51,0,0,0,3.44-.47v5.83a21.08,21.08,0,0,1-5.55.78q-4.84,0-7.3-2.93t-2.46-8.32V59.94h-7.7V54.35h7.7V44.12h7.23Z" transform="translate(-42.3 -38.96)"/><path class="cls-1" d="M466.79,43.14a4.31,4.31,0,0,1,1.07-3A4,4,0,0,1,471.05,39a4.1,4.1,0,0,1,3.2,1.21,4.27,4.27,0,0,1,1.09,3A4.28,4.28,0,1,1,466.79,43.14Zm7.81,53.48h-7.23V54.35h7.23V96.62Z" transform="translate(-42.3 -38.96)"/><path class="cls-1" d="M493,54.35l0.23,5.31a15.4,15.4,0,0,1,12.66-6.09q13.4,0,13.52,15.12V96.62h-7.23v-28q0-4.57-2.09-6.76t-6.39-2.19a10.43,10.43,0,0,0-6.17,1.88,12.72,12.72,0,0,0-4.14,4.92V96.62h-7.23V54.35H493Z" transform="translate(-42.3 -38.96)"/><path class="cls-1" d="M547.85,97.4q-8.59,0-14-5.64t-5.39-15.1V75.33a25.37,25.37,0,0,1,2.4-11.23,18.74,18.74,0,0,1,6.72-7.73,16.9,16.9,0,0,1,9.36-2.79q8.24,0,12.81,5.43t4.57,15.55v3H535.7a15,15,0,0,0,3.65,10.1,11.48,11.48,0,0,0,8.89,3.85,12.59,12.59,0,0,0,6.48-1.56,16.29,16.29,0,0,0,4.65-4.14l4.41,3.44Q558.47,97.4,547.85,97.4Zm-0.9-37.89a9.64,9.64,0,0,0-7.34,3.18q-3,3.18-3.67,8.93h21.17V71.07q-0.31-5.51-3-8.54A9.08,9.08,0,0,0,546.95,59.51Z" transform="translate(-42.3 -38.96)"/></svg>